<?xml version="1.0" encoding="UTF-8"?>
<svg id="Capa_1" data-name="Capa 1" xmlns="http://www.w3.org/2000/svg" viewBox="0 0 128 64">
  <path d="m15.28,40.01c19.43.42,37.6,8.77,57.03,9.82,5.64.21,11.28-.42,15.67-2.92-7.94-1.46-15.46-4.18-21.1-9.4-6.06-5.43-6.68-15.46-2.92-22.56,3.55-6.68,12.53-6.89,18.8-5.22,14.83,3.55,24.86,21.31,16.5,33.84,9.19.63,18.38,0,27.36.42,1.88.21,1.88,2.92-.21,2.92-9.19.63-20.26,1.46-31.12.84-.63.42-1.25,1.04-1.88,1.46-22.14,15.46-54.52-3.97-78.33-4.6-2.72-.21-2.72-4.8.21-4.6Zm82.09-5.01c2.3-8.56-5.22-15.88-12.12-19.43-6.89-3.55-16.71-3.55-19.01,5.43-2.72,10.44,6.27,16.71,14.83,19.43,3.97,1.25,7.73,2.09,11.7,2.51,2.3-2.09,3.76-4.6,4.6-7.94Z"/>
  <path d="m1.07,40.22c2.92-1.88,5.64-3.76,8.36-5.64,2.3-1.67,4.6-3.55,7.31-4.18,2.09-.63,4.18,2.51,2.3,3.97-2.3,1.67-4.8,3.13-7.1,4.6-1.67,1.04-3.34,2.3-4.8,3.34,1.67.84,3.34,1.46,5.01,2.3,1.25.63,2.72,1.25,3.97,1.88.42.21.84.63,1.04,1.04.63.84.21.42,0,.21.84.63.84,2.72-.63,2.51h0c-.42.21-.84.21-1.46.21-1.46-.42-3.13-1.04-4.6-1.67-3.13-1.25-6.27-2.51-9.19-4.18-1.67-1.25-1.67-3.55-.21-4.39Z"/>
</svg>