<?xml version="1.0" encoding="UTF-8"?>
<svg id="Layer_1" data-name="Layer 1" xmlns="http://www.w3.org/2000/svg" viewBox="0 0 344 152.88">
  <defs>
    <style>
      .cls-1 {
        fill: #c85700;
      }

      .cls-2 {
        fill: #00c1a2;
      }

      .cls-3 {
        fill: #d88a0f;
      }

      .cls-4 {
        fill: #fcb9bc;
        stroke: #df94a6;
        stroke-miterlimit: 4;
        stroke-width: .5px;
      }

      .cls-5 {
        fill: #1375c2;
      }

      .cls-6 {
        fill: #f5cccc;
        stroke: #d89595;
        stroke-miterlimit: 4;
        stroke-width: .5px;
      }

      .cls-7 {
        fill: #705df2;
      }

      .cls-8 {
        fill: #cce4f7;
        stroke: #7dc3fb;
        stroke-miterlimit: 4;
        stroke-width: .5px;
      }

      .cls-9 {
        fill: #ccf1e1;
        stroke: #80cbab;
        stroke-miterlimit: 4;
        stroke-width: .5px;
      }

      .cls-10 {
        fill: #c00;
      }

      .cls-11 {
        fill: #ff693a;
      }

      .cls-12 {
        fill: #ffe2cc;
        stroke: #eda974;
        stroke-miterlimit: 4;
        stroke-width: .5px;
      }

      .cls-13 {
        fill: #d3eafd;
        stroke: #83bbe7;
      }

      .cls-13, .cls-14 {
        stroke-width: .5px;
      }

      .cls-15 {
        fill: #2eb9dd;
      }

      .cls-16 {
        fill: #e2dffc;
        stroke: #cac3fd;
        stroke-miterlimit: 4;
        stroke-width: .5px;
      }

      .cls-17 {
        fill: #caa900;
      }

      .cls-18 {
        fill: #f5eaff;
        stroke: #cdafe7;
        stroke-miterlimit: 4;
        stroke-width: .5px;
      }

      .cls-19 {
        fill: #c3002f;
      }

      .cls-20 {
        fill: #fcdcd2;
        stroke: #ffb7a2;
        stroke-miterlimit: 4;
        stroke-width: .5px;
      }

      .cls-21 {
        fill: #0078d7;
      }

      .cls-22 {
        fill: #dff8fe;
        stroke: #b1d9e3;
        stroke-miterlimit: 4;
        stroke-width: .5px;
      }

      .cls-23 {
        fill: #4caf50;
      }

      .cls-24 {
        fill: #feeed4;
        stroke: #ead4b2;
        stroke-miterlimit: 4;
        stroke-width: .5px;
      }

      .cls-25 {
        fill: #aa6cdd;
      }

      .cls-26 {
        fill: #ccf3ec;
        stroke: #67beb0;
        stroke-miterlimit: 4;
        stroke-width: .5px;
      }

      .cls-27 {
        fill: #00b066;
      }

      .cls-28 {
        fill: #fff7cc;
        stroke: #e4dfc4;
        stroke-miterlimit: 4;
        stroke-width: .5px;
      }

      .cls-14 {
        fill: #dbefdc;
        stroke: #accbae;
      }
    </style>
  </defs>
  <rect class="cls-12" x="2.7" y="116.34" width="49.99" height="27.64" rx="4.41" ry="4.41" transform="translate(-58.54 28.81) rotate(-28.38)"/>
  <path class="cls-1" d="m16.82,141.38l-4.03-7.45,1.25-.68,1.69,3.14,3.52-1.9-1.69-3.14,1.25-.68,4.03,7.45-1.25.68-1.7-3.14-3.52,1.9,1.7,3.15-1.25.68h0Zm9.08-4.91l-3.39-6.28-2.22,1.2-.63-1.17,5.68-3.07.63,1.17-2.21,1.19,3.39,6.28-1.25.68h0Zm4.29-2.32l-4.03-7.45,1.25-.68,5.11,3.71-.31-6.31,1.26-.68,4.03,7.45-1.26.68-2.67-4.95.25,4.94-1.06.57-4-2.91,2.67,4.95-1.25.68h.01Zm8.86-4.79l-4.03-7.45,1.25-.68,3.39,6.28,3.29-1.78.63,1.17-4.54,2.45h0Z"/>
  <rect class="cls-28" x="35.35" y="55.51" width="27.64" height="78.21" rx="4.41" ry="4.41" transform="translate(-57.42 91.62) rotate(-60.93)"/>
  <path class="cls-17" d="m23.19,85.76c-.28-.16-.52-.34-.72-.55-.19-.2-.34-.43-.45-.68-.11-.24-.17-.5-.19-.78s0-.56.07-.85l1.39.39c-.04.12-.06.24-.05.36,0,.12.03.24.08.36s.11.22.19.32.18.18.29.24c.07.04.15.07.24.1.09.02.18.04.28.04s.19,0,.29-.03.19-.08.28-.14c.05-.04.11-.09.16-.15s.1-.12.15-.19.1-.16.15-.24c.05-.09.1-.18.16-.29l2.77-4.98,1.24.69-2.77,4.98c-.09.16-.18.3-.26.44s-.17.26-.26.38c-.09.12-.18.22-.28.32-.09.1-.19.18-.29.26-.36.27-.74.4-1.14.4s-.84-.14-1.3-.39h-.03Zm9.15-2.59c.79.44,1.27.97,1.44,1.58s.02,1.33-.44,2.15l-1.82,3.28-1.23-.69.41-.74c-.35.2-.72.29-1.09.27-.38,0-.78-.14-1.2-.37-.28-.16-.51-.34-.7-.54-.19-.21-.32-.43-.41-.66-.08-.24-.11-.48-.08-.74.03-.26.11-.51.25-.76.15-.27.33-.49.55-.65.21-.16.45-.26.72-.31.27-.05.57-.05.9,0,.33.06.68.16,1.06.31l1.83.74-.43.93-1.73-.7c-.21-.09-.4-.15-.57-.18-.17-.04-.32-.04-.46-.03-.14.02-.25.06-.35.14-.1.07-.18.17-.25.29-.14.24-.16.47-.07.68.09.21.29.4.61.58.17.1.34.16.51.2s.34.05.5.04c.16,0,.32-.05.46-.11.15-.06.28-.14.39-.24.13-.1.25-.22.34-.37.09-.14.18-.28.24-.4l.49-.88c.11-.2.18-.38.21-.55.04-.17.03-.33,0-.47-.04-.15-.12-.28-.23-.4-.12-.12-.26-.24-.45-.34-.34-.19-.64-.27-.9-.26-.26.02-.51.13-.75.35l-.96-.93c.43-.43.92-.66,1.47-.7s1.13.1,1.74.44v.04Zm1.83,8.48l1.07-6.67,1.24.69-.84,4.81,3.64-3.25,1.24.69-5.1,4.43-1.24-.69h-.01Zm9.28-2.32c.79.44,1.27.97,1.44,1.58s.02,1.33-.44,2.15l-1.82,3.28-1.23-.69.41-.74c-.35.2-.72.29-1.09.27-.38,0-.78-.14-1.2-.37-.28-.16-.51-.34-.7-.54-.19-.21-.32-.43-.41-.66-.08-.24-.11-.48-.08-.74s.11-.51.25-.76c.15-.27.33-.49.55-.64.21-.16.45-.26.72-.31s.57-.05.9,0c.33.06.68.16,1.06.31l1.83.74-.43.93-1.73-.7c-.21-.09-.4-.15-.57-.18-.17-.04-.32-.04-.46-.03-.14.02-.25.06-.35.14-.1.07-.18.17-.25.29-.14.24-.16.47-.07.68s.29.4.61.58c.17.1.34.16.51.2s.34.05.5.04c.16,0,.32-.05.46-.11.15-.06.28-.14.39-.24.13-.1.25-.22.34-.37.09-.14.18-.28.24-.4l.49-.88c.11-.2.18-.38.21-.55.04-.17.03-.33,0-.47-.04-.15-.12-.28-.23-.4-.12-.12-.26-.23-.45-.34-.34-.19-.64-.27-.9-.26-.26,0-.51.13-.75.35l-.96-.93c.43-.43.92-.66,1.47-.7.55-.04,1.13.1,1.74.44v.03Zm2.6,9.11c-.35-.19-.64-.41-.87-.64-.24-.23-.42-.48-.55-.75s-.19-.55-.21-.84c0-.29.04-.59.14-.91l1.38.51c-.09.33-.08.63.04.89.12.26.35.49.69.67.3.17.57.24.81.22s.42-.13.54-.34c.03-.06.06-.12.07-.18s0-.12,0-.18c0-.06-.04-.13-.08-.2-.04-.07-.1-.14-.17-.23s-.17-.19-.3-.32-.29-.28-.47-.46c-.27-.26-.5-.51-.69-.73-.18-.23-.32-.45-.41-.66-.09-.22-.12-.43-.11-.64.02-.21.09-.43.22-.65.14-.26.32-.46.54-.61s.47-.24.74-.29c.28-.04.57-.03.88.04.32.07.64.19.97.38.32.18.59.38.82.61.23.22.4.46.52.72.13.26.2.52.21.79.02.27-.02.54-.13.82l-1.39-.48c.05-.13.07-.27.07-.4s-.03-.26-.09-.38c-.05-.12-.14-.23-.25-.34s-.24-.21-.39-.29c-.13-.07-.27-.13-.4-.16-.13-.04-.25-.05-.36-.04-.11,0-.2.02-.29.07-.08.04-.15.11-.2.19-.04.08-.06.15-.06.22s.03.15.06.22c.04.08.09.16.16.24s.15.17.24.27c.1.11.22.24.36.38s.31.3.48.48c.25.24.44.47.59.68.15.21.25.42.3.61.06.19.07.39.04.58-.03.2-.1.4-.21.6-.15.28-.35.5-.58.66-.23.16-.49.27-.77.31-.28.05-.59.03-.91-.04-.33-.07-.67-.21-1.02-.41h.04Zm5.81,3.24c-.42-.24-.77-.52-1.03-.85-.25-.33-.42-.7-.51-1.09s-.09-.8-.02-1.23c.08-.43.23-.85.47-1.27.24-.43.52-.79.84-1.07.33-.29.68-.5,1.06-.63s.78-.17,1.2-.13c.42.04.84.18,1.26.42.32.18.59.38.81.61.23.23.4.48.52.75.13.27.2.55.23.85s0,.61-.09.92l-1.42-.35c.07-.35.04-.68-.09-.96-.13-.29-.34-.51-.62-.67-.24-.13-.47-.2-.69-.22s-.44.03-.64.12-.4.23-.57.42-.33.41-.48.67c-.15.26-.25.52-.32.77-.06.25-.08.48-.04.71.03.22.11.42.24.6.13.18.31.33.54.46.33.19.63.26.91.21.27-.05.54-.18.79-.42l1.11.99c-.24.23-.5.42-.78.55-.27.14-.56.22-.85.25-.29.03-.59,0-.9-.06-.3-.07-.61-.19-.92-.36h-.01Zm9.21-.97c-.07-.06-.15-.12-.25-.18-.09-.06-.2-.12-.31-.19-.21-.12-.41-.19-.61-.21s-.39,0-.57.06-.35.17-.51.33c-.16.15-.31.35-.44.59l.22-1.03c.15-.2.32-.39.51-.56.2-.17.42-.3.66-.38.24-.09.5-.12.79-.09.29.02.6.13.93.31.04.02.09.05.13.08.04.02.09.05.13.08l-.66,1.19h-.02Zm-5.63,2.76l3.09-5.55,1.24.69-3.09,5.55-1.24-.69Zm7.76-4.06l.63-1.13,1.24.69-.63,1.14-1.24-.69h0Zm-3.55,6.38l3.09-5.55,1.24.69-3.09,5.55-1.24-.69Zm1.41,4.01l4.46-8.02,1.24.69-4.46,8.02s-1.24-.69-1.24-.69Zm4.23-.68c-.4-.22-.69-.48-.88-.78-.19-.3-.3-.62-.32-.98-.02-.35.03-.73.15-1.13.13-.4.31-.81.54-1.23.24-.42.49-.79.76-1.11.28-.32.57-.56.88-.73.32-.17.65-.24,1-.24s.73.11,1.13.34c.37.2.66.46.89.78.23.32.38.67.46,1.05s.08.79,0,1.21c-.07.43-.23.86-.47,1.29s-.52.79-.85,1.08c-.32.29-.67.5-1.04.63s-.74.19-1.13.16c-.38-.02-.76-.14-1.12-.34h0Zm.39-1.3c.24.14.48.21.71.23.23.02.45-.02.66-.11.21-.09.41-.22.58-.41.18-.18.35-.41.49-.67.15-.27.25-.53.31-.78s.07-.49.03-.71c-.03-.22-.12-.42-.26-.61-.13-.19-.32-.35-.57-.48-.25-.14-.49-.22-.72-.23s-.45.02-.65.11c-.2.09-.39.23-.57.41-.18.18-.34.41-.49.67-.15.27-.26.53-.32.79-.06.25-.07.49-.04.71.04.22.12.42.26.61.14.18.32.34.56.48h.02Zm5.17-1.58l.64-1.15,3.87,2.15-.64,1.15-3.87-2.15Zm2.04,5.45l-.61,1.1-1.06-.59-.1-.06c-.27-.15-.49-.32-.66-.5-.17-.19-.29-.39-.36-.6s-.09-.44-.06-.68c.03-.24.12-.48.26-.73l.06-.1,3.19-5.73,1.23.69-3.1,5.58c-.07.12-.11.24-.14.35-.02.11-.02.2.01.3.03.09.07.18.15.26s.18.15.3.22l.91.51-.02-.02Z"/>
  <rect class="cls-13" x="55.48" y="124.84" width="42.93" height="27.64" rx="4.41" ry="4.41"/>
  <path class="cls-5" d="m69.02,143.54c-.64,0-1.2-.11-1.71-.32-.5-.22-.93-.52-1.28-.91-.34-.39-.61-.85-.79-1.39s-.28-1.14-.28-1.79.09-1.25.28-1.79c.18-.54.45-1.01.79-1.39.35-.39.77-.69,1.28-.9.5-.22,1.07-.32,1.71-.32.49,0,.94.06,1.35.19.41.13.77.31,1.09.54s.6.52.83.85.41.71.54,1.12l-1.43.39c-.08-.27-.19-.52-.34-.74-.14-.22-.31-.4-.51-.55-.2-.15-.42-.27-.68-.35-.25-.08-.54-.12-.86-.12-.41,0-.78.07-1.1.22-.32.14-.58.35-.8.62-.22.27-.38.59-.49.96-.11.38-.17.8-.17,1.26s.05.88.16,1.26c.11.38.27.7.48.97.22.27.48.47.8.62.32.14.7.22,1.12.22.32,0,.6-.04.86-.12.25-.08.48-.2.68-.35.2-.15.37-.34.51-.56s.25-.47.34-.74l1.43.39c-.13.41-.31.79-.54,1.12s-.51.62-.83.85c-.32.23-.69.41-1.09.54-.41.13-.86.19-1.35.19v.03Zm8.59,0c-.47,0-.91-.06-1.31-.19-.4-.13-.75-.3-1.06-.54-.3-.24-.55-.52-.75-.85s-.33-.7-.39-1.11l1.47-.22c.06.26.15.49.28.68.12.2.27.36.45.49s.39.23.62.3.49.1.78.1c.25,0,.49-.03.7-.09.22-.06.4-.15.56-.26.16-.11.28-.24.36-.39.09-.15.13-.32.13-.5,0-.23-.08-.43-.23-.58-.15-.16-.39-.28-.71-.38l-2.19-.65c-.63-.18-1.1-.46-1.42-.82-.31-.36-.47-.82-.47-1.36,0-.37.07-.7.22-1.01s.36-.56.63-.78.59-.38.97-.5c.38-.12.79-.18,1.23-.18s.84.06,1.22.16c.37.11.7.27.99.48.29.21.53.47.73.78.2.31.35.66.44,1.05l-1.52.26c-.05-.23-.12-.43-.23-.6-.11-.18-.24-.33-.4-.45s-.35-.21-.56-.28c-.21-.06-.44-.09-.69-.09s-.45.03-.65.08c-.19.06-.35.13-.48.23-.13.09-.24.21-.31.34-.07.13-.11.27-.11.42,0,.12.02.23.07.33s.12.19.22.27.23.16.38.23c.16.07.34.14.56.19l1.51.42c.76.21,1.33.51,1.71.89s.56.86.56,1.43c0,.39-.08.75-.24,1.08-.16.32-.39.6-.68.84-.29.23-.64.41-1.05.54-.41.13-.86.19-1.35.19v.05Zm7.91,0c-.47,0-.91-.06-1.31-.19-.4-.13-.75-.3-1.06-.54-.3-.24-.55-.52-.75-.85s-.33-.7-.39-1.11l1.47-.22c.06.26.15.49.28.68.12.2.27.36.45.49s.39.23.62.3.49.1.78.1c.25,0,.49-.03.7-.09.22-.06.4-.15.56-.26.16-.11.28-.24.36-.39.09-.15.13-.32.13-.5,0-.23-.08-.43-.23-.58-.15-.16-.39-.28-.71-.38l-2.19-.65c-.63-.18-1.1-.46-1.42-.82s-.47-.82-.47-1.36c0-.37.07-.7.22-1.01s.36-.56.63-.78.59-.38.97-.5c.38-.12.79-.18,1.23-.18s.84.06,1.22.16c.37.11.7.27.99.48.29.21.53.47.73.78.2.31.35.66.44,1.05l-1.52.26c-.05-.23-.12-.43-.23-.6-.11-.18-.24-.33-.4-.45s-.35-.21-.56-.28c-.21-.06-.44-.09-.69-.09s-.45.03-.65.08c-.19.06-.35.13-.48.23-.13.09-.24.21-.31.34-.07.13-.11.27-.11.42,0,.12.02.23.07.33s.12.19.22.27.23.16.38.23c.16.07.34.14.56.19l1.51.42c.76.21,1.33.51,1.71.89s.56.86.56,1.43c0,.39-.08.75-.24,1.08-.16.32-.39.6-.68.84-.29.23-.64.41-1.05.54-.41.13-.86.19-1.35.19v.05Z"/>
  <rect class="cls-4" x="43.99" y="42.59" width="64.1" height="27.64" rx="4.41" ry="4.41" transform="translate(-12.53 22.96) rotate(-15.88)"/>
  <path class="cls-19" d="m58.15,57.59l5.02,7.38-1.44.41-4.46-6.63.43-.12-.3,7.99-1.44.41.38-8.91,1.81-.51v-.02Zm-1.23,7.24l-.36-1.27,4.28-1.22.36,1.27-4.28,1.22Zm10.48-4.71c-.08-.26-.17-.49-.3-.67-.12-.19-.26-.33-.42-.43-.16-.11-.34-.17-.54-.19-.2-.03-.41,0-.64.06-.23.07-.42.16-.58.28s-.28.27-.36.45c-.08.17-.13.37-.13.59s.03.46.1.73l-.58-.88c-.04-.25-.05-.5-.03-.76s.09-.5.19-.73c.11-.23.27-.44.5-.62.22-.18.51-.33.88-.43.37-.1.71-.15,1.04-.12.33.02.63.1.91.26.28.15.52.38.73.68.21.3.38.67.51,1.12l1.04,3.65-1.36.39-.96-3.36v-.02Zm-3.27,4.56l-1.74-6.11,1.36-.39,1.74,6.11-1.36.39Zm9.39-4.11c.26-.07.47-.18.64-.32.18-.14.31-.32.4-.52.09-.2.14-.42.15-.66,0-.25-.03-.51-.11-.79-.08-.29-.19-.53-.33-.74s-.3-.37-.48-.49c-.18-.12-.38-.19-.61-.22-.22-.03-.45,0-.7.06-.25.07-.47.18-.64.32-.17.14-.3.32-.4.52-.09.2-.15.42-.15.67s.03.51.11.78c.08.28.19.53.33.74.14.2.3.37.49.49.18.12.39.19.61.22s.46,0,.71-.07h-.02Zm-1.69-4.85c.43-.12.82-.15,1.16-.09.34.07.64.21.91.43.27.22.49.51.69.87.19.36.35.77.49,1.23.13.47.21.91.23,1.31.03.4-.02.77-.13,1.09-.11.32-.29.6-.55.84-.26.23-.6.41-1.03.53-.4.11-.78.14-1.17.09-.38-.05-.73-.18-1.06-.38-.32-.2-.61-.47-.86-.81s-.44-.75-.57-1.22c-.14-.48-.19-.92-.16-1.34s.13-.81.3-1.15c.17-.34.4-.63.7-.87.3-.24.64-.42,1.04-.53h0Zm4.94,5.03c.13.46.19.91.17,1.34-.02.43-.12.82-.29,1.18-.17.36-.42.67-.75.94s-.73.47-1.21.61c-.34.1-.68.15-1,.14-.32,0-.63-.04-.92-.14-.29-.09-.55-.24-.8-.43-.25-.19-.46-.43-.64-.71l1.3-.71c.19.28.43.47.72.57s.62.09.98,0c.26-.08.48-.19.66-.34s.32-.33.41-.54c.09-.21.14-.44.14-.7s-.04-.53-.12-.83l-1.64-5.77,1.36-.39,1.65,5.79h-.02Zm2.14-3.23c.07.26.17.49.29.68.12.19.26.33.42.44.16.1.34.16.54.19.2.02.41,0,.64-.07.23-.07.42-.16.58-.28s.28-.27.36-.44c.08-.18.13-.37.14-.6,0-.22-.03-.46-.1-.73l.58.88c.04.25.05.5.03.76-.02.26-.08.5-.19.73s-.27.44-.5.62c-.22.18-.51.33-.88.43-.37.1-.71.15-1.04.12-.33-.02-.63-.1-.9-.26-.28-.16-.52-.38-.73-.68-.21-.3-.38-.68-.5-1.13l-1.04-3.65,1.36-.39.96,3.36-.02.02Zm3.27-4.56l1.74,6.11-1.36.39-1.74-6.11,1.36-.39Zm3.44,5.63l-2.37-8.31,1.36-.39,2.37,8.32-1.36.39h0Zm3.73-7.86c.87-.25,1.59-.21,2.13.1.55.32.95.93,1.21,1.83l1.03,3.61-1.36.39-.23-.82c-.11.39-.3.71-.58.97s-.65.45-1.11.58c-.31.09-.6.12-.88.11-.28-.02-.53-.08-.76-.18-.22-.11-.42-.27-.58-.46-.16-.2-.28-.44-.36-.71-.09-.3-.11-.58-.07-.84s.14-.5.29-.73c.16-.23.37-.44.64-.63s.6-.37.97-.53l1.82-.77.36.96-1.71.73c-.21.09-.39.18-.53.28-.14.09-.26.2-.35.31-.08.11-.13.22-.15.35-.02.12,0,.25.03.38.08.27.22.44.43.53s.49.08.84-.02c.19-.05.36-.12.5-.22.15-.1.28-.2.38-.33.11-.12.19-.26.25-.4.06-.15.1-.3.11-.45.02-.16.02-.33-.02-.5-.04-.17-.07-.32-.11-.46l-.28-.97c-.06-.22-.14-.4-.24-.54-.09-.14-.21-.25-.34-.32-.13-.08-.28-.12-.45-.12s-.35.02-.55.08c-.37.1-.64.26-.82.45-.18.2-.27.46-.28.78l-1.33.02c0-.6.18-1.11.54-1.53s.87-.73,1.55-.92h.01Zm7.87-.82c-.09,0-.19.02-.3.05-.11.02-.22.05-.35.09-.23.07-.42.16-.58.28s-.28.27-.36.45c-.08.17-.13.37-.13.59s.03.46.1.73l-.58-.88c-.04-.25-.05-.5-.03-.76.02-.26.09-.5.2-.73s.27-.44.5-.62c.22-.19.51-.33.88-.43.05-.01.1-.03.14-.03.05-.01.1-.03.15-.04l.37,1.31h0Zm-2.03,5.93l-1.74-6.11,1.36-.39,1.74,6.11-1.36.39Z"/>
  <rect class="cls-22" x="91.82" y="58.1" width="27.64" height="52.34" rx="4.41" ry="4.41" transform="translate(17.81 186.96) rotate(-88.04)"/>
  <path class="cls-15" d="m91.3,81.35l-.1,2.86,1.91.07c.25,0,.48-.02.68-.07.2-.06.37-.14.5-.26.14-.12.24-.26.32-.44.08-.18.12-.38.13-.61,0-.23-.02-.44-.08-.62-.06-.18-.16-.34-.28-.46-.13-.13-.29-.22-.48-.29-.19-.07-.42-.11-.67-.12l-1.91-.06h-.02Zm3.17,7.25l-2.13-3.54,1.46-.24,2.31,3.85-1.64-.06h0Zm-3.41-.13l-1.42-.05.29-8.46,3.34.11c.5.02.93.1,1.3.23.37.14.68.33.92.57.24.25.42.54.54.89.11.34.16.73.15,1.16-.02.43-.09.81-.23,1.15-.14.34-.34.62-.59.85-.26.23-.58.4-.96.51s-.82.15-1.32.14l-1.92-.07-.1,2.96h0Zm9.2-.8c.36,0,.66-.05.91-.19s.45-.36.6-.66l1.39.45c-.13.28-.3.53-.5.75s-.42.4-.67.55c-.25.14-.52.25-.82.32s-.61.1-.94.09c-.47-.02-.9-.11-1.29-.28-.38-.18-.71-.42-.98-.72-.26-.3-.47-.66-.6-1.08-.14-.42-.2-.88-.18-1.37.02-.5.11-.96.28-1.36.17-.41.4-.75.68-1.04.29-.28.63-.5,1.02-.65s.82-.21,1.29-.2c.5.02.95.12,1.32.31.38.19.69.45.93.79.24.33.41.73.51,1.19.1.47.12.98.06,1.56l-1.43-.05.03-.94c0-.49-.12-.88-.38-1.15-.26-.28-.62-.43-1.09-.45-.26,0-.49.03-.7.12s-.39.22-.54.39-.26.38-.35.64-.13.55-.14.87c-.01.33.02.62.08.87.07.26.17.48.31.66.14.18.3.32.51.42.2.1.44.16.7.16h-.01Zm2.76-2.63l.25,1.08-4.92-.17.07-1.07,4.6.16Zm4.13-2.54c.91.03,1.58.28,2,.75.43.47.63,1.17.59,2.11l-.13,3.75-1.41-.05.03-.85c-.22.33-.51.58-.85.74s-.76.23-1.24.22c-.32,0-.61-.07-.87-.16-.26-.1-.48-.24-.66-.41-.18-.18-.31-.38-.41-.62-.09-.24-.14-.5-.13-.79.01-.31.08-.59.19-.82s.29-.44.5-.61c.22-.17.48-.3.8-.4.32-.1.68-.17,1.08-.2l1.97-.17.05,1.03-1.85.17c-.23.02-.43.05-.59.1-.17.05-.31.11-.42.19s-.2.17-.25.29c-.06.11-.08.23-.09.37,0,.28.07.49.25.64s.45.23.81.24c.2,0,.38,0,.54-.05.17-.04.33-.11.47-.2s.26-.19.36-.31.18-.25.24-.39c.07-.15.12-.31.13-.48.02-.17.03-.33.03-.47l.03-1.01c0-.23-.01-.42-.06-.58-.04-.17-.12-.3-.23-.41-.1-.11-.23-.2-.39-.25-.16-.06-.34-.09-.55-.1-.38,0-.69.05-.92.18-.23.13-.4.35-.5.65l-1.27-.39c.19-.57.52-1,.99-1.29s1.05-.42,1.75-.4v-.02Zm6.75,6.94c-.49-.02-.92-.11-1.3-.29-.38-.18-.7-.43-.95-.73s-.45-.67-.58-1.08c-.13-.42-.18-.87-.17-1.35.02-.49.1-.94.26-1.34.16-.41.38-.75.66-1.04.28-.29.62-.51,1.01-.66.39-.15.83-.22,1.31-.2.36,0,.69.07,1,.18.31.1.58.25.81.43.24.18.43.4.59.66.16.26.27.54.34.86l-1.42.33c-.1-.35-.27-.62-.52-.82-.25-.2-.54-.3-.86-.31-.27,0-.51.03-.72.12s-.38.22-.52.4-.25.39-.32.63-.11.52-.12.81c-.01.3.01.58.07.83s.15.47.28.65.29.32.49.43c.2.1.43.16.7.17.38,0,.68-.06.9-.23.22-.16.39-.41.51-.73l1.43.37c-.11.32-.26.6-.44.84-.18.24-.4.45-.65.61-.24.16-.52.28-.82.35-.3.08-.63.11-.99.1h.02Zm3.48-5.08l.05-1.32,4.43.15-.05,1.32-4.43-.15Zm4.3,3.92l-.04,1.26-1.22-.04h-.12c-.31,0-.58-.06-.82-.15s-.43-.22-.59-.37c-.16-.16-.28-.35-.36-.58s-.11-.48-.1-.76v-.12l.23-6.55,1.41.05-.22,6.38c0,.14,0,.26.03.37.03.1.08.19.14.26.06.07.15.12.25.16.1.04.23.06.37.06l1.04.04h0Z"/>
  <rect class="cls-14" x="208.38" y="124.84" width="52.34" height="27.64" rx="4.41" ry="4.41"/>
  <path class="cls-23" d="m222.27,143.54c-.51,0-.97-.07-1.39-.22s-.78-.38-1.08-.68c-.3-.3-.53-.67-.69-1.11-.16-.45-.25-.96-.25-1.55v-5.09h1.42v5.03c0,.38.04.72.12,1.01s.2.52.36.71.37.33.62.42.54.14.88.14.63-.05.88-.14.46-.24.62-.42c.16-.19.29-.43.37-.71.08-.29.12-.62.12-1.01v-5.03h1.42v5.09c0,.58-.08,1.1-.25,1.55-.16.44-.4.81-.7,1.11s-.66.52-1.08.68c-.42.15-.88.22-1.39.22h.02Zm5.17-.18v-8.47h1.42v8.47h-1.42Zm5.33-8.47h1.42l-2.26,8.47h-1.42l2.26-8.47Zm6.36,8.64c-.51,0-.97-.07-1.39-.22s-.78-.38-1.08-.68c-.3-.3-.53-.67-.69-1.11-.16-.45-.25-.96-.25-1.55v-5.09h1.42v5.03c0,.38.04.72.12,1.01s.2.52.36.71.37.33.62.42.54.14.88.14.63-.05.88-.14.46-.24.62-.42c.16-.19.29-.43.37-.71.08-.29.12-.62.12-1.01v-5.03h1.42v5.09c0,.58-.08,1.1-.25,1.55-.16.44-.4.81-.7,1.11s-.66.52-1.08.68c-.42.15-.88.22-1.39.22h.02Zm4.35-.18l2.87-4.28-2.79-4.19h1.73l1.93,2.98,1.91-2.98h1.75l-2.79,4.19,2.86,4.28h-1.73l-1.99-3.08-2,3.08h-1.75Z"/>
  <rect class="cls-26" x="111.91" y="2.48" width="52.34" height="27.64" rx="4.41" ry="4.41" transform="translate(-.94 13.96) rotate(-5.77)"/>
  <path class="cls-2" d="m122.88,22.57l-.85-8.43,1.42-.14.72,7.1,3.72-.38.13,1.32-5.14.52h0Zm8.94-.72c-.47.05-.91.01-1.31-.11s-.76-.32-1.06-.58c-.3-.27-.55-.6-.75-.99-.19-.4-.31-.84-.36-1.33-.05-.5-.02-.96.09-1.38s.29-.8.53-1.11c.25-.32.56-.58.93-.79.37-.2.79-.33,1.26-.38.48-.05.92,0,1.32.12.4.12.76.32,1.06.58.31.26.56.59.74.99.19.39.32.84.36,1.33.05.49.02.95-.09,1.37-.11.42-.28.8-.53,1.12s-.56.58-.93.79c-.37.2-.79.32-1.27.37h0Zm-.13-1.32c.27-.03.5-.1.69-.21.2-.12.36-.27.48-.45.13-.19.21-.41.26-.67.05-.26.06-.54.03-.85-.03-.32-.1-.6-.2-.84-.1-.24-.22-.44-.38-.6-.16-.16-.34-.28-.56-.35s-.46-.09-.73-.06c-.27.03-.5.1-.7.21-.19.11-.35.26-.47.45-.12.19-.21.41-.25.66s-.05.54-.02.86.1.6.2.84c.1.24.23.44.39.61.16.16.34.27.55.34.22.07.45.09.72.06h0Zm3.35-4.24l-.13-1.31,4.41-.45.13,1.31-4.41.45Zm4.79,3.31l.13,1.25-1.21.12h-.12c-.3.04-.58.03-.83-.02-.25-.06-.46-.16-.64-.29-.18-.14-.32-.31-.44-.52-.11-.21-.18-.46-.21-.74v-.12l-.67-6.52,1.4-.14.64,6.35c.02.14.04.26.08.36.05.1.1.18.18.24.07.06.16.1.27.13.11.02.23.02.37,0l1.04-.1h.01Zm-.42-3.75l-.13-1.31,4.4-.45.13,1.31-4.41.45h.01Zm4.79,3.31l.13,1.25-1.21.12h-.12c-.3.04-.58.03-.83-.02-.25-.06-.46-.16-.64-.29-.18-.14-.32-.31-.44-.52-.11-.21-.18-.46-.21-.74v-.12l-.67-6.52,1.4-.14.64,6.35c0,.14.04.26.08.36.05.1.1.18.18.24s.16.1.27.13c.11.02.23.02.37,0l1.04-.1h.01Zm.88-6.18l-.13-1.29,1.41-.14.13,1.29-1.41.14Zm.74,7.28l-.64-6.32,1.41-.14.64,6.32-1.41.14Zm5.85-1.73c.36-.04.65-.14.87-.31.23-.18.39-.42.5-.74l1.43.26c-.09.3-.22.57-.39.81-.16.24-.36.45-.59.63s-.48.32-.77.43c-.28.11-.59.18-.92.22-.47.05-.91.01-1.32-.11-.4-.12-.76-.32-1.06-.58s-.55-.6-.74-.99c-.19-.4-.32-.84-.36-1.33-.05-.5-.02-.96.09-1.39.12-.43.29-.8.54-1.12s.56-.58.93-.78.79-.32,1.25-.37c.5-.05.96,0,1.35.13.4.14.75.35,1.03.65.29.29.51.67.67,1.11.16.45.25.96.27,1.53l-1.42.14-.1-.93c-.06-.49-.24-.85-.53-1.09-.29-.25-.67-.35-1.14-.3-.26.03-.48.1-.68.21-.19.11-.35.27-.48.46-.12.19-.21.42-.26.68s-.06.56-.02.88c.03.32.1.61.2.85.1.25.24.45.39.61.16.16.35.28.56.35.22.07.46.1.72.07l-.02.02Zm2.38-2.98l.39,1.04-4.9.5-.07-1.07,4.58-.46h0Z"/>
  <rect class="cls-6" x="129.86" y="76.46" width="27.64" height="94.68" rx="4.41" ry="4.41" transform="translate(-13.98 229.22) rotate(-74.52)"/>
  <path class="cls-10" d="m109.85,111.91l-.76,2.75,1.84.51c.24.07.47.1.68.09.21,0,.39-.05.55-.13s.3-.2.41-.35c.12-.16.2-.34.26-.56.06-.22.08-.43.06-.62-.02-.19-.07-.36-.17-.51s-.23-.28-.4-.4c-.17-.11-.38-.2-.63-.27,0,0-1.84-.51-1.84-.51Zm1.39,7.79l-1.24-3.94,1.47.1,1.35,4.28-1.58-.44Zm-3.29-.91l-1.37-.38,2.26-8.16,3.22.89c.48.13.88.31,1.21.53s.58.48.76.77c.18.3.28.63.31.99s-.01.75-.13,1.17c-.11.41-.28.77-.49,1.06-.21.3-.47.52-.78.69-.31.16-.66.26-1.05.28-.4.02-.83-.04-1.31-.17l-1.85-.51-.79,2.85h0Zm8.14-.72c-.07.26-.11.5-.1.73,0,.22.05.42.13.59.08.17.2.32.36.44s.35.21.58.28c.23.06.44.08.64.06s.38-.09.54-.19c.16-.11.31-.25.43-.44s.22-.41.29-.68l.03,1.05c-.1.23-.22.45-.37.66s-.33.39-.54.53-.46.23-.75.28c-.28.04-.61,0-.98-.09-.37-.1-.68-.25-.95-.44-.27-.18-.48-.42-.64-.69-.15-.28-.24-.6-.27-.96-.02-.36.03-.77.16-1.23l1.01-3.66,1.37.38-.93,3.37h-.01Zm5.17-2.18l-1.69,6.12-1.37-.38,1.69-6.12,1.37.38Zm2.14-1.6l1.37.38-2.26,8.16-1.37-.38,2.26-8.16Zm2.73,2.77c.4.11.75.29,1.04.55.3.25.53.55.7.91s.26.74.29,1.18c.03.44-.02.89-.15,1.37s-.32.89-.57,1.25c-.24.36-.53.64-.86.86-.32.22-.68.36-1.06.42-.38.07-.77.04-1.18-.07-.44-.12-.78-.3-1.04-.54-.25-.24-.44-.54-.54-.88-.1-.34-.14-.72-.12-1.13.03-.42.11-.86.24-1.33.13-.46.29-.88.48-1.25s.42-.68.69-.91c.27-.24.57-.39.92-.47.34-.08.73-.06,1.17.06v-.02Zm-.65,1.2c-.26-.07-.5-.09-.73-.06-.23.04-.43.12-.61.25s-.34.31-.47.53c-.13.22-.24.48-.32.78-.08.29-.12.56-.12.82s.04.49.12.7c.08.21.22.38.39.54.17.15.4.26.67.34.27.07.52.09.74.06.23-.04.43-.12.61-.25s.34-.31.47-.53c.14-.22.24-.48.33-.78.08-.29.12-.56.12-.82s-.04-.49-.12-.7c-.08-.21-.22-.39-.39-.54-.18-.15-.4-.26-.67-.34h-.02Zm2.96,9.14l2.08-2.91-.24.96-.85-7.3,1.42.39.55,5.38-.36-.1,3.19-4.34,1.37.38-5.86,7.9-1.28-.36h-.02Zm11.22.36c-.46-.13-.85-.32-1.18-.58-.33-.26-.59-.57-.78-.93-.18-.36-.3-.76-.33-1.2s.02-.89.15-1.37c.13-.48.33-.9.59-1.25.26-.36.56-.64.9-.84.35-.21.73-.34,1.15-.4s.85-.02,1.31.11c.46.13.86.32,1.19.58s.59.57.78.93c.19.36.3.76.34,1.19.04.44,0,.89-.14,1.37s-.33.89-.58,1.25-.55.64-.9.86c-.35.21-.73.34-1.15.4-.42.05-.86,0-1.32-.12h-.03Zm.36-1.28c.26.07.5.09.72.06.22-.04.43-.12.61-.25.19-.13.35-.31.48-.53.14-.22.25-.48.33-.79s.12-.59.12-.85-.05-.49-.14-.7c-.09-.21-.22-.38-.4-.52s-.39-.25-.66-.32c-.26-.07-.5-.09-.73-.06-.22.03-.42.12-.6.25-.18.13-.34.3-.48.53-.13.22-.24.48-.33.79-.08.31-.12.59-.12.85s.05.5.14.7.22.38.39.52c.18.14.39.25.64.32h.03Zm9.15.11c.07-.26.11-.51.1-.73,0-.22-.05-.42-.13-.59s-.2-.32-.36-.44-.35-.22-.58-.28-.44-.08-.64-.06-.38.09-.54.19c-.16.1-.3.25-.42.44s-.22.41-.29.68l-.03-1.05c.1-.23.22-.45.37-.66s.33-.39.55-.53c.21-.14.46-.23.75-.28.28-.04.61,0,.98.09.37.1.68.25.95.44.27.18.48.42.64.7s.24.6.27.96-.02.77-.15,1.22l-1.01,3.66-1.37-.38.93-3.37h-.02Zm-5.17,2.18l1.69-6.12,1.37.38-1.69,6.12-1.37-.38Zm12.62-3.91l-.76,2.75,1.84.51c.25.07.47.1.68.09s.39-.05.55-.13.3-.2.41-.35c.12-.16.2-.34.26-.56s.08-.43.06-.62-.07-.36-.17-.51c-.1-.15-.23-.29-.4-.4s-.38-.2-.63-.27l-1.84-.51Zm1.39,7.79l-1.24-3.94,1.47.1,1.35,4.28-1.58-.44Zm-3.29-.91l-1.37-.38,2.26-8.16,3.22.89c.48.13.88.31,1.21.53s.58.48.76.77c.18.3.28.63.31.99s0,.75-.13,1.17c-.11.41-.28.77-.49,1.06-.21.3-.47.52-.78.69-.31.16-.66.26-1.05.28-.4.02-.83-.04-1.31-.18l-1.85-.51-.79,2.85h.01Zm10.33-3.91c.88.24,1.47.64,1.77,1.2.31.56.33,1.29.08,2.2l-1,3.62-1.36-.38.23-.82c-.3.27-.63.45-1,.52-.37.08-.79.05-1.25-.08-.31-.09-.58-.21-.81-.36-.23-.16-.41-.34-.55-.55-.13-.21-.22-.44-.25-.7-.04-.25-.02-.52.06-.8.08-.3.21-.55.38-.76.17-.2.38-.36.63-.47s.54-.18.88-.2c.33-.02.7,0,1.1.05l1.96.29-.19,1.01-1.84-.27c-.23-.03-.43-.05-.6-.04-.17,0-.32.03-.46.08-.13.05-.23.12-.31.22-.08.09-.14.21-.17.34-.07.27-.04.5.09.68.14.18.38.33.73.42.19.05.37.08.54.08.18,0,.34-.03.5-.08s.3-.12.42-.21c.13-.1.24-.2.32-.33.1-.13.19-.28.24-.44.06-.16.1-.31.14-.45l.27-.98c.06-.22.09-.41.08-.58,0-.17-.05-.32-.12-.46-.07-.13-.18-.25-.32-.34-.14-.09-.31-.17-.51-.22-.37-.1-.68-.12-.94-.04s-.47.25-.64.52l-1.15-.68c.32-.51.74-.86,1.26-1.02.52-.17,1.12-.16,1.8.02h-.01Zm4.39.41l.35-1.25,1.37.38-.35,1.25-1.37-.38Zm-1.95,7.05l1.69-6.12,1.37.38-1.69,6.12-1.37-.38Zm3.18.88l2.31-8.33,1.37.38-2.31,8.33-1.37-.38Zm5.4,1.68c-.38-.1-.72-.24-1-.42-.29-.17-.52-.37-.71-.6-.18-.23-.32-.49-.4-.77-.08-.28-.1-.59-.08-.91l1.46.17c0,.34.07.63.25.86s.46.39.83.49c.33.09.61.1.84.03s.38-.23.44-.46c.02-.07.03-.13.03-.19s0-.12-.04-.18c-.02-.06-.06-.12-.12-.18-.05-.06-.13-.12-.22-.18-.09-.07-.22-.15-.37-.24-.16-.1-.34-.21-.56-.34-.33-.19-.61-.38-.84-.55-.23-.18-.42-.36-.55-.55s-.22-.38-.26-.59c-.03-.21,0-.44.06-.69.08-.28.21-.52.38-.72.18-.2.4-.35.66-.45.26-.11.55-.16.86-.17.32,0,.67.04,1.03.14s.67.23.94.4c.27.16.5.36.68.58s.31.46.39.72.1.53.06.82l-1.46-.14c.02-.14,0-.28-.03-.4-.03-.13-.09-.24-.18-.35-.08-.1-.19-.2-.32-.27-.13-.08-.28-.14-.45-.19-.15-.04-.29-.06-.42-.06s-.25,0-.36.04c-.1.03-.19.07-.26.13-.07.06-.12.14-.14.24-.02.08-.02.16,0,.23.02.07.06.14.11.2.06.06.13.13.22.19.09.07.19.13.3.2.12.08.27.18.44.28.18.1.37.22.58.35.3.18.54.35.73.52s.34.35.44.52c.1.18.16.36.18.56.02.2,0,.41-.06.63-.08.31-.22.57-.41.78-.18.21-.41.38-.67.49s-.56.17-.9.17-.7-.05-1.09-.16v.02Z"/>
  <rect class="cls-18" x="153.26" y="25.26" width="89.97" height="27.64" rx="4.41" ry="4.41" transform="translate(-3.18 23.08) rotate(-6.61)"/>
  <path class="cls-25" d="m167.18,38.89l3.76,8.09-1.48.17-3.33-7.26.44-.05-1.59,7.83-1.48.17,1.81-8.73s1.87-.22,1.87-.22Zm-2.38,6.95l-.15-1.31,4.42-.51.15,1.31-4.42.51Zm6.66-5.46l-.02-.18c-.04-.35-.04-.65,0-.9.05-.26.14-.48.28-.65.14-.18.33-.32.57-.42s.53-.17.88-.21l.2-.02.77-.09.13,1.14-.71.08c-.15.02-.28.05-.38.09-.1.04-.18.1-.24.17-.05.07-.09.16-.11.27,0,.11,0,.24,0,.39l.77,6.61-1.41.16-.75-6.45h.02Zm-.85,1.58l-.15-1.31,3.95-.46.15,1.31-3.95.46Zm4.18-.48l-.15-1.31,4.4-.51.15,1.31-4.4.51Zm4.83,3.24l.14,1.25-1.21.14h-.12c-.3.05-.58.04-.83,0-.25-.05-.46-.15-.64-.28s-.33-.31-.44-.52-.18-.46-.22-.74v-.12l-.77-6.51,1.4-.16.74,6.34c.02.14.05.26.09.36.05.1.11.18.18.23.07.06.16.1.27.12.11.02.23.02.37,0l1.03-.12h.01Zm4-.32c.36-.04.65-.15.87-.33s.39-.43.49-.74l1.44.24c-.09.3-.21.57-.38.82-.16.24-.36.46-.58.64s-.48.33-.77.44c-.28.12-.59.19-.92.23-.47.05-.91.02-1.32-.09-.4-.12-.76-.31-1.07-.57-.31-.26-.56-.59-.76-.98-.2-.4-.33-.84-.39-1.33-.06-.5-.03-.96.07-1.39.11-.43.28-.8.52-1.13.24-.32.55-.59.92-.79.37-.2.78-.33,1.25-.39.5-.06.95-.02,1.36.11s.75.34,1.04.64c.29.29.52.66.68,1.11.17.45.26.96.29,1.53l-1.42.16-.11-.93c-.07-.49-.25-.85-.55-1.09s-.68-.34-1.15-.28c-.26.03-.48.1-.68.22-.19.12-.35.27-.47.46s-.2.42-.25.69-.05.56,0,.88c.04.32.11.61.21.85.11.24.24.45.4.6.16.16.35.27.57.34s.46.09.72.06v.02Zm2.33-3.01l.4,1.03-4.89.57-.09-1.07,4.57-.53h0Zm4.98-1.89h-.31c-.11,0-.23.02-.36.03-.24.03-.44.09-.62.18-.17.1-.32.22-.43.38-.11.16-.18.34-.22.57-.04.22-.05.46-.02.74l-.42-.96c0-.25.03-.5.09-.75s.16-.48.31-.69c.14-.21.34-.39.59-.54s.56-.24.94-.29c.05,0,.1,0,.15-.01.05,0,.1-.01.15-.01l.16,1.35h0Zm-2.97,5.53l-.73-6.31,1.41-.16.73,6.31-1.41.16Zm7.01-.81l-.97-8.41,5.44-.63.15,1.32-4.03.47.24,2.07,3.33-.39.15,1.32-3.33.39.28,2.38,4.03-.47.15,1.32-5.44.63h0Zm6.65-7.3l-.02-.18c-.04-.35-.04-.65,0-.9.05-.26.14-.48.28-.65.14-.18.33-.32.57-.42s.53-.17.88-.21l.2-.02.77-.09.13,1.15-.71.08c-.15.02-.28.05-.38.09-.1.04-.18.1-.24.17-.06.07-.09.16-.11.27,0,.11,0,.24,0,.39l.77,6.61-1.41.16-.75-6.45h.02Zm-.85,1.57l-.15-1.31,3.95-.46.15,1.31-3.95.46Zm4.78-2.02l-.02-.18c-.04-.35-.04-.65,0-.9.05-.26.14-.48.28-.65.14-.18.33-.32.57-.42s.53-.17.88-.21l.2-.02.77-.09.13,1.15-.71.08c-.15.02-.28.05-.38.09-.1.04-.18.1-.24.17-.06.07-.09.16-.11.27-.02.11,0,.24,0,.39l.77,6.61-1.41.16-.75-6.45h.02Zm-.85,1.57l-.15-1.31,3.95-.46.15,1.31-3.95.46Zm7.91,3.01c.36-.04.65-.15.87-.32.22-.18.39-.43.49-.74l1.44.24c-.09.3-.21.57-.38.82-.16.24-.36.46-.58.64s-.48.33-.77.44c-.28.12-.59.19-.92.23-.47.05-.91.02-1.32-.09-.4-.12-.76-.31-1.07-.57-.31-.26-.56-.59-.76-.98-.2-.4-.33-.84-.38-1.33-.06-.5-.03-.96.07-1.39.11-.43.28-.8.52-1.13.24-.32.55-.59.91-.79.37-.2.78-.33,1.25-.39.5-.06.95-.02,1.36.11s.75.34,1.04.64c.29.29.52.66.68,1.1.17.45.26.96.29,1.53l-1.42.16-.11-.93c-.07-.49-.25-.85-.55-1.09s-.68-.34-1.15-.28c-.26.03-.48.1-.68.22-.19.12-.35.27-.47.46s-.2.42-.25.69c-.04.27-.05.56,0,.88.04.32.11.61.21.85.11.24.24.45.4.6.16.16.35.27.57.34s.46.09.72.06v.02Zm2.33-3.01l.4,1.03-4.89.57-.09-1.07,4.57-.53h0Zm4.79,3.5c-.48.06-.93.02-1.33-.1-.4-.12-.75-.32-1.05-.58-.3-.27-.54-.59-.73-.99-.19-.39-.31-.83-.36-1.31-.06-.49-.04-.94.06-1.36.1-.43.26-.8.5-1.13.24-.33.54-.6.9-.8.37-.21.79-.34,1.26-.4.36-.04.7-.03,1.02.02.32.06.61.16.87.31.26.14.49.33.68.56.2.23.35.5.47.8l-1.36.54c-.15-.33-.36-.57-.64-.73-.27-.16-.57-.22-.9-.18-.27.03-.5.11-.69.23s-.34.28-.45.47-.19.42-.22.67-.03.53,0,.82c.04.3.1.57.2.81.09.24.22.44.38.6.16.16.34.28.55.35s.45.09.71.06c.38-.04.66-.16.86-.36.19-.2.33-.46.4-.8l1.47.16c-.06.33-.16.63-.31.9-.14.27-.32.5-.55.7-.22.2-.47.35-.76.47-.28.12-.61.21-.96.25l-.02.02Zm2.68-5.56l-.15-1.31,4.4-.51.15,1.31-4.4.51Zm4.83,3.24l.14,1.25-1.21.14h-.12c-.3.05-.58.04-.83,0-.25-.06-.46-.15-.64-.28s-.33-.31-.44-.52-.18-.46-.22-.74v-.12l-.77-6.51,1.4-.16.73,6.34c.02.14.05.26.09.36.05.1.11.18.18.23.07.06.16.1.27.12.11.02.23.02.37,0l1.03-.12h.02Zm3.98.99c-.39.04-.76.04-1.08-.01-.33-.05-.62-.15-.88-.29-.26-.14-.48-.33-.66-.56-.18-.23-.32-.5-.41-.82l1.42-.39c.12.32.3.56.55.7s.57.19.95.14c.34-.04.6-.14.79-.29.19-.16.27-.35.24-.59,0-.07-.02-.13-.04-.18-.02-.06-.06-.11-.11-.15-.04-.05-.1-.08-.18-.12-.07-.03-.16-.06-.28-.09-.11-.03-.25-.06-.44-.08-.18-.03-.4-.06-.65-.1-.38-.06-.71-.12-.99-.19-.28-.08-.52-.18-.72-.3s-.35-.27-.46-.45-.18-.4-.21-.66c-.03-.29,0-.56.08-.81.09-.25.24-.47.44-.67s.44-.36.74-.48c.3-.13.63-.22,1.01-.26.37-.04.71-.04,1.02.02.31.05.6.14.84.28.25.13.46.31.63.52s.3.46.37.74l-1.41.42c-.04-.14-.1-.26-.18-.36-.08-.1-.18-.19-.3-.26-.12-.07-.25-.11-.4-.13-.15-.03-.31-.03-.49,0-.15.02-.29.05-.42.1-.12.05-.23.1-.32.17-.09.06-.15.14-.19.22-.04.08-.06.17-.04.27,0,.09.04.16.08.22s.11.11.18.14c.08.04.17.07.27.1.11.03.22.05.35.08.15.03.32.06.51.09.2.03.42.07.67.11.34.05.63.12.88.21.24.09.45.19.61.32.16.12.28.27.37.45s.15.38.18.61c.04.32,0,.61-.08.87-.09.27-.24.5-.44.7s-.46.37-.77.5-.66.22-1.06.27h.03Z"/>
  <rect class="cls-24" x="198.98" y="52.83" width="75.86" height="27.64" rx="4.41" ry="4.41" transform="translate(-5.69 108.06) rotate(-25.4)"/>
  <path class="cls-3" d="m214.09,82.7l-3.63-7.65,1.29-.61,3.63,7.65-1.29.61Zm2.99-1.42l-3.71-7.81,1.28-.61,3.71,7.81-1.28.61Zm2.98-1.41l-3.71-7.81,1.28-.61,3.71,7.81-1.28.61Zm2.82-4.5c.12.24.25.45.4.62.15.16.31.28.49.36.17.07.36.11.56.1s.41-.07.62-.17c.22-.1.39-.23.53-.37.13-.15.23-.31.28-.5.06-.19.07-.39.04-.61s-.1-.45-.22-.7l.71.78c.08.24.13.48.15.74.03.26,0,.51-.07.75-.07.25-.2.48-.38.7-.19.22-.45.41-.8.57-.34.16-.68.26-1.01.3-.33.04-.64,0-.94-.1-.3-.11-.58-.29-.83-.55-.25-.26-.48-.6-.68-1.03l-1.63-3.43,1.28-.61,1.5,3.16h0Zm2.47-5.05l2.73,5.74-1.28.61-2.72-5.74,1.28-.61h0Zm6.52,4.13c-.36.17-.7.28-1.03.34s-.64.06-.93,0-.56-.16-.8-.32-.46-.38-.66-.64l1.22-.82c.21.27.46.43.75.48s.6,0,.95-.17c.31-.15.53-.32.65-.53.13-.21.14-.42.04-.64-.03-.06-.06-.12-.1-.16-.04-.05-.09-.08-.15-.11s-.13-.05-.21-.05h-.29c-.11,0-.26.03-.44.06-.18.03-.4.07-.65.11-.37.07-.71.11-1,.14-.29.02-.55,0-.78-.06-.23-.05-.42-.15-.58-.28-.16-.14-.3-.32-.41-.56-.13-.27-.19-.53-.18-.79,0-.27.07-.53.2-.77.12-.25.3-.48.54-.69.24-.22.53-.41.87-.57.33-.16.66-.26.97-.31s.61-.06.89,0c.28.04.54.14.77.29.23.14.43.34.59.58l-1.2.85c-.08-.12-.17-.22-.29-.29-.11-.07-.23-.12-.36-.15s-.27-.02-.42,0-.31.07-.46.15c-.14.07-.26.14-.36.23-.1.08-.19.17-.24.27-.06.09-.1.18-.11.27,0,.09,0,.18.04.27.04.08.09.14.15.18s.14.07.22.08.18,0,.29,0c.11,0,.23-.02.36-.04.15-.02.32-.04.52-.08.2-.03.42-.07.67-.12.34-.06.64-.09.9-.09s.48.04.68.11c.19.07.36.17.5.3.14.14.26.31.36.52.14.29.2.57.2.85s-.06.55-.19.81-.31.49-.56.72c-.25.22-.56.42-.92.59v.03Zm.63-6.07l-.56-1.19,4-1.9.56,1.19-4,1.9Zm5.62,1.51l.54,1.14-1.1.52-.11.05c-.28.13-.54.21-.8.25-.25.03-.48,0-.7-.06-.21-.07-.41-.18-.59-.35-.17-.16-.32-.37-.44-.63l-.05-.11-2.81-5.92,1.27-.61,2.74,5.77c.06.13.13.23.2.31.08.08.16.13.25.16s.19.04.29.03c.11-.02.23-.06.35-.12l.94-.45.02.02Zm2.79-5.63c-.09.02-.19.05-.29.1-.1.04-.21.09-.33.15-.22.1-.39.23-.53.37-.14.15-.23.31-.28.5-.05.18-.06.38-.03.61.03.22.1.45.22.7l-.71-.78c-.08-.24-.13-.49-.16-.74-.02-.26,0-.51.07-.76s.2-.48.38-.7.45-.41.8-.57c.05-.02.09-.04.14-.06s.09-.04.14-.06l.59,1.23h-.01Zm-1.03,6.2l-2.72-5.74,1.28-.61,2.72,5.74-1.28.61Zm3.62-8.94c.82-.39,1.53-.47,2.12-.25.6.22,1.09.76,1.5,1.61l1.61,3.39-1.27.61-.37-.77c-.04.4-.18.75-.41,1.05-.23.3-.56.55-1,.76-.29.14-.57.22-.85.25s-.53,0-.78-.06c-.24-.07-.45-.19-.65-.36-.19-.17-.35-.38-.47-.64-.14-.28-.2-.56-.21-.82,0-.26.05-.52.17-.77s.29-.49.53-.73c.24-.23.53-.46.87-.68l1.67-1.06.51.89-1.57,1c-.19.12-.35.24-.48.36-.13.12-.22.24-.29.36-.06.12-.09.24-.09.37,0,.12.03.24.09.37.12.25.29.4.51.45s.5,0,.83-.16c.18-.08.33-.18.46-.3.13-.12.24-.25.32-.39.09-.14.15-.29.18-.44.04-.16.04-.31.03-.46,0-.17-.04-.33-.1-.49-.06-.16-.12-.31-.19-.43l-.43-.91c-.1-.21-.2-.37-.32-.49-.12-.13-.25-.22-.39-.26-.14-.05-.3-.07-.46-.05-.17.02-.34.08-.53.17-.35.16-.59.36-.73.58s-.19.49-.15.81l-1.31.24c-.1-.6,0-1.13.28-1.6s.74-.86,1.38-1.16h0Zm3.81-.15l-.56-1.19,4-1.9.56,1.19-4,1.9Zm5.62,1.51l.54,1.14-1.1.52-.11.05c-.28.13-.54.21-.79.25-.25.03-.48,0-.7-.06-.21-.07-.41-.18-.59-.35-.17-.16-.32-.38-.44-.63l-.05-.11-2.81-5.92,1.27-.61,2.74,5.77c.06.13.13.23.2.31.08.08.16.13.25.16s.19.04.29.03c.11-.02.23-.06.36-.12l.94-.45v.02Zm4.23-.42c-.43.2-.85.32-1.27.34-.42.02-.82-.05-1.2-.19-.38-.15-.72-.38-1.03-.69s-.57-.69-.78-1.13c-.21-.45-.34-.89-.38-1.33-.04-.44,0-.85.13-1.23.12-.38.33-.74.61-1.05s.63-.57,1.06-.78c.43-.21.86-.32,1.28-.33.42-.02.82.04,1.2.19.38.15.72.37,1.03.68.32.31.58.68.79,1.13.21.45.34.89.38,1.33s0,.85-.12,1.24c-.13.38-.33.74-.61,1.05s-.64.57-1.07.78h-.02Zm-.57-1.21c.24-.12.44-.26.58-.43.15-.17.25-.37.3-.59.06-.22.06-.46.02-.72s-.13-.53-.26-.81c-.14-.29-.29-.53-.47-.72-.17-.2-.36-.34-.56-.44s-.42-.14-.64-.14-.46.07-.71.19c-.24.12-.44.26-.59.43s-.24.36-.3.58c-.05.22-.06.45,0,.71.04.25.13.52.27.82.14.29.29.53.47.72.18.2.36.34.57.44.2.1.41.14.64.13.23,0,.46-.07.7-.18h0Zm5.54-7.05c-.09.02-.19.05-.29.1-.1.04-.21.09-.33.15-.22.1-.39.23-.53.37-.14.15-.23.31-.28.5-.05.18-.06.38-.03.61.03.22.11.45.22.7l-.71-.77c-.08-.24-.13-.49-.16-.74-.02-.26,0-.51.07-.76s.2-.48.38-.7c.19-.22.45-.41.8-.57.05-.02.09-.04.14-.06.05-.02.09-.04.14-.06l.59,1.23h-.01Zm-1.03,6.19l-2.72-5.74,1.28-.61,2.72,5.74-1.28.61Z"/>
  <rect class="cls-20" x="259.52" y="66.26" width="53.51" height="27.64" rx="4.41" ry="4.41" transform="translate(-8.55 42.06) rotate(-8.28)"/>
  <path class="cls-11" d="m270.74,87.09l-1.22-8.38,5.14-.75.19,1.31-3.73.54.36,2.44,3.03-.44.19,1.31-3.03.44.48,3.3-1.41.21v.02Zm5.25-8.16l-.19-1.29,1.4-.2.19,1.29-1.4.2Zm1.05,7.24l-.92-6.29,1.4-.2.92,6.28-1.4.2h0Zm5.73-2.23c.26-.04.49-.12.68-.23.19-.12.35-.27.46-.46.12-.19.2-.4.23-.64.04-.24.03-.51,0-.79-.04-.3-.12-.55-.23-.78-.11-.22-.24-.4-.41-.55-.16-.14-.35-.24-.57-.3-.21-.06-.45-.07-.7-.03-.26.04-.49.12-.68.24-.19.12-.34.27-.46.46-.12.18-.2.4-.24.64-.04.24-.04.51,0,.79.04.29.12.55.23.78.11.22.25.4.42.55.17.14.36.24.57.3.21.06.45.06.71.03h-.01Zm-1.03-5.05c.45-.06.83-.04,1.16.07.33.11.61.29.85.54.24.25.42.57.57.95.14.38.25.81.32,1.28.07.48.09.93.06,1.33-.03.4-.12.76-.27,1.07-.15.31-.37.56-.66.76-.28.2-.65.33-1.09.39-.41.06-.8.04-1.17-.06-.37-.1-.7-.27-1-.51-.29-.24-.54-.55-.74-.92-.2-.37-.34-.8-.41-1.29-.07-.49-.06-.94.02-1.35.09-.42.23-.78.45-1.1s.48-.57.81-.77.69-.33,1.1-.39h0Zm4.23,5.64c.07.48.07.93-.01,1.35-.08.42-.23.8-.45,1.13s-.51.61-.87.83-.79.37-1.28.44c-.35.05-.69.05-1.01,0-.32-.04-.62-.13-.9-.26-.27-.13-.52-.31-.74-.53s-.4-.48-.54-.79l1.38-.53c.16.31.37.53.64.66.27.13.6.17.97.12.27-.04.51-.12.7-.25.2-.12.36-.29.48-.48.12-.2.19-.42.23-.68s.04-.53,0-.84l-.86-5.93,1.4-.2.87,5.95h-.01Zm4.89-4.2c-.03-.21-.08-.4-.16-.56-.07-.17-.17-.3-.28-.41s-.25-.18-.41-.23c-.16-.04-.34-.05-.54-.02s-.37.09-.52.18c-.14.09-.25.2-.33.33s-.13.29-.16.48c-.02.18-.02.37.01.59l-.39-.45c-.01-.16-.01-.32,0-.49,0-.18.02-.35.06-.52.03-.18.08-.34.15-.5s.17-.31.29-.44.27-.24.44-.34c.17-.09.38-.16.62-.19.36-.05.69-.05.99,0,.29.06.55.18.76.35.22.18.39.41.53.7.14.28.24.63.3,1.03l.59,4.04-1.4.2-.55-3.75h0Zm-3.23,4.29l-.92-6.29,1.4-.2.92,6.28-1.4.2h0Zm7.01-4.84c-.03-.21-.08-.4-.15-.57-.07-.17-.17-.3-.28-.41-.12-.11-.25-.18-.41-.22-.16-.04-.34-.05-.54-.02s-.37.09-.52.18c-.14.09-.25.2-.33.33s-.13.29-.16.47c-.02.18-.02.37.01.59l-.73-.4c-.02-.27,0-.54.05-.82.06-.28.16-.54.3-.78.14-.24.34-.44.57-.6.24-.17.53-.27.87-.32.38-.06.72-.05,1.02,0,.31.06.57.17.79.35.23.17.41.4.56.69.14.28.25.63.3,1.03l.59,4.04-1.4.2-.55-3.75h.01Zm5.06-3.5c.9-.13,1.6,0,2.1.38.5.39.82,1.04.96,1.98l.54,3.71-1.4.2-.12-.84c-.16.37-.4.66-.7.88-.31.22-.7.36-1.18.43-.32.05-.61.04-.89,0-.27-.05-.51-.15-.72-.28-.21-.14-.38-.32-.51-.54-.14-.22-.22-.47-.26-.75-.04-.31-.03-.59.04-.84.08-.25.2-.48.39-.69.18-.2.42-.38.72-.54.3-.15.64-.28,1.03-.39l1.91-.52.23,1-1.79.49c-.22.06-.41.13-.56.21-.16.07-.28.16-.38.26-.1.1-.16.21-.2.32-.03.12-.04.24-.02.38.04.28.16.47.36.58.2.11.48.14.84.09.19-.03.37-.08.53-.15.16-.07.3-.17.42-.28.12-.11.22-.23.3-.37s.13-.28.16-.43c.04-.16.06-.33.05-.5s-.03-.33-.05-.47l-.15-1c-.03-.22-.09-.41-.16-.56-.07-.16-.17-.28-.3-.37-.12-.09-.26-.15-.43-.18-.17-.03-.35-.03-.56,0-.38.06-.67.17-.87.34-.2.17-.33.42-.38.73l-1.32-.16c.08-.6.33-1.08.74-1.44.41-.37.96-.6,1.66-.71l-.03.03Z"/>
  <rect class="cls-9" x="136.18" y="31.15" width="27.64" height="85.27" rx="4.41" ry="4.41" transform="translate(-15.36 98.32) rotate(-34.63)"/>
  <path class="cls-27" d="m134.43,46.96l-2.35,1.62,1.09,1.57c.14.21.3.38.46.5.16.13.33.21.51.25s.36.04.54,0c.19-.04.38-.13.56-.26.19-.13.34-.28.44-.44.11-.16.18-.32.2-.5s0-.37-.05-.56c-.06-.2-.16-.4-.31-.61l-1.09-1.57h0Zm-3.93,6.87l1.58-3.82,1.06,1.02-1.71,4.15-.93-1.35h0Zm-1.94-2.81l-.81-1.17,6.97-4.81,1.9,2.75c.28.41.48.8.59,1.19.11.38.14.74.09,1.08s-.19.66-.4.96c-.21.3-.49.57-.85.81-.35.24-.7.41-1.05.5s-.7.1-1.04.03-.67-.22-.98-.46-.61-.57-.9-.98l-1.09-1.58-2.43,1.68h0Zm6.14,6.9c.2.3.44.5.7.61s.56.14.89.09l.47,1.38c-.3.06-.6.08-.9.05-.29-.03-.57-.1-.84-.21-.26-.11-.51-.27-.75-.47s-.45-.43-.64-.7c-.27-.39-.45-.79-.54-1.21-.09-.41-.09-.82,0-1.21s.26-.77.51-1.13c.26-.36.59-.68.99-.96.41-.28.83-.48,1.26-.59s.84-.13,1.24-.07c.4.06.78.21,1.13.44s.66.53.93.92c.29.42.47.83.54,1.25.08.42.05.82-.07,1.22-.12.39-.34.77-.65,1.12-.32.36-.72.68-1.21.97l-.81-1.17.77-.54c.4-.29.63-.62.7-.99.07-.38-.02-.76-.29-1.14-.15-.21-.32-.38-.51-.5-.19-.12-.4-.18-.63-.2-.22-.02-.47.02-.72.11-.26.08-.52.22-.78.41-.27.18-.48.38-.65.59-.16.21-.28.42-.34.64s-.08.44-.04.66c.04.22.14.44.28.66l-.04-.03Zm3.75.65l-.72.84-2.8-4.05.9-.58,2.62,3.79h0Zm-1.01,5.63c-.22-.33-.39-.65-.5-.96-.11-.31-.16-.62-.16-.91s.07-.58.19-.84.3-.52.53-.75l1.01,1.07c-.23.25-.35.53-.36.82,0,.29.1.59.32.91.19.28.4.47.63.56.23.09.44.07.63-.07.06-.04.1-.08.14-.13s.07-.1.08-.16c.02-.06.03-.13.02-.21,0-.08-.02-.17-.05-.28s-.07-.25-.13-.42-.13-.38-.22-.62c-.13-.36-.23-.68-.29-.96-.06-.29-.09-.54-.07-.77.02-.23.08-.44.18-.62.11-.18.27-.34.48-.49.24-.17.49-.27.75-.31.27-.04.53,0,.8.07s.52.22.77.42.49.46.7.77c.21.3.36.61.46.91s.15.59.15.88-.05.55-.16.8c-.1.25-.26.48-.48.67l-1.03-1.04c.11-.1.18-.21.24-.33.06-.12.08-.25.09-.38,0-.13-.02-.27-.07-.42s-.12-.29-.22-.43c-.09-.13-.18-.23-.28-.32-.1-.09-.2-.16-.3-.2-.1-.05-.2-.07-.29-.07s-.18.03-.26.09c-.07.05-.12.11-.15.18-.03.07-.04.14-.04.23,0,.08.02.18.04.29s.06.22.1.35c.04.14.09.31.16.5s.14.41.22.64c.12.32.19.62.23.87s.04.48,0,.68c-.03.2-.11.38-.22.54-.11.16-.26.31-.45.44-.26.18-.53.29-.81.34-.28.04-.55.02-.83-.06-.27-.08-.54-.23-.8-.44-.26-.21-.5-.48-.74-.81v-.03Zm.03,4.71l7.55-5.21.81,1.17-7.55,5.21-.81-1.17Zm4.09,1.27c-.26-.37-.41-.74-.45-1.09-.04-.35,0-.69.14-1.02.14-.33.35-.64.63-.94.29-.3.64-.59,1.03-.86.4-.28.79-.5,1.18-.66s.76-.25,1.11-.26c.36,0,.69.07,1,.23.31.16.6.43.86.8.24.34.39.71.45,1.09.06.38.05.76-.05,1.14s-.28.74-.53,1.09c-.26.35-.59.67-.99.95-.41.28-.82.48-1.24.59-.42.12-.82.15-1.21.11s-.75-.16-1.08-.36c-.33-.19-.62-.46-.86-.8h.01Zm.93-1.01c.16.23.34.4.54.52.2.12.41.18.64.2.23,0,.46-.02.7-.11.25-.08.49-.21.74-.38.26-.18.46-.36.63-.56s.28-.41.34-.62c.07-.21.08-.43.04-.66-.04-.23-.14-.45-.29-.68-.16-.24-.34-.41-.54-.53s-.41-.18-.63-.19c-.22,0-.45.03-.7.12-.24.08-.49.21-.74.38-.25.18-.46.36-.63.57-.16.2-.28.4-.35.62-.06.22-.08.44-.04.66.04.22.14.45.29.68v-.02Zm3.03,6.73c-.27-.39-.45-.79-.54-1.2s-.09-.82,0-1.21c.09-.4.26-.77.51-1.13s.58-.68.99-.96c.41-.28.83-.48,1.25-.59.43-.11.84-.13,1.23-.07.4.06.78.21,1.13.43.36.23.67.53.94.92s.45.8.54,1.21.09.82,0,1.21c-.08.4-.25.77-.51,1.13-.25.36-.58.68-.99.96-.41.28-.82.48-1.25.58-.42.11-.84.14-1.24.08-.4-.06-.78-.21-1.13-.43-.35-.23-.67-.54-.94-.93h.01Zm1.09-.76c.15.22.33.39.52.51.2.12.4.18.63.2.23.02.46,0,.71-.1.25-.08.5-.21.76-.39s.47-.37.64-.58c.17-.2.28-.41.34-.62.06-.22.08-.44.03-.66-.04-.22-.14-.44-.3-.67-.15-.22-.33-.39-.52-.51s-.4-.18-.62-.2-.46.02-.7.1c-.24.08-.5.21-.76.4-.26.18-.47.37-.64.58-.16.2-.28.41-.34.63-.06.21-.07.43-.03.65.04.22.14.44.29.66h-.01Zm6.95,5.95c.23-.16.41-.32.54-.5.14-.17.23-.35.28-.53.05-.19.05-.38,0-.57-.04-.2-.13-.39-.26-.59-.14-.2-.29-.35-.45-.46-.17-.11-.35-.18-.54-.2-.19-.02-.39,0-.6.07-.21.06-.43.18-.66.33l.65-.83c.22-.12.46-.21.7-.27.25-.06.5-.08.76-.05.25.03.5.12.75.27.25.15.48.38.69.69.22.31.37.63.45.95.09.32.1.63.04.94-.06.31-.19.61-.41.91-.21.29-.51.57-.9.84l-3.12,2.16-.81-1.17,2.87-1.98h.02Zm-5.37-1.64l5.23-3.61.8,1.17-5.23,3.61-.81-1.17h0Zm5.43,8.17c-.22-.33-.39-.65-.5-.96-.11-.31-.16-.62-.16-.91s.07-.58.19-.84c.12-.27.3-.52.53-.75l1.01,1.07c-.23.25-.35.53-.36.82,0,.29.1.59.32.91.19.28.4.47.63.56.23.09.44.07.63-.07.06-.04.1-.08.14-.13s.07-.1.08-.16c.02-.06.03-.13.02-.21,0-.08-.02-.17-.05-.28s-.07-.25-.13-.43c-.06-.17-.13-.38-.22-.62-.13-.36-.23-.68-.29-.96-.06-.29-.09-.54-.07-.77.02-.23.08-.44.18-.62.11-.18.27-.34.48-.49.24-.17.49-.27.75-.31.27-.04.53,0,.79.07.27.08.52.22.77.42s.49.46.7.77c.21.3.36.61.46.91s.15.59.15.88-.05.55-.16.8c-.1.25-.26.48-.48.67l-1.04-1.04c.1-.1.18-.21.24-.33.06-.12.08-.25.09-.38,0-.13-.02-.27-.07-.42s-.12-.29-.22-.43c-.09-.13-.18-.23-.28-.32-.1-.09-.2-.16-.3-.2-.1-.05-.2-.07-.29-.06-.09,0-.18.03-.26.09-.07.05-.12.11-.15.18-.03.07-.04.14-.04.23,0,.08.02.18.04.29.03.11.06.22.1.35.04.14.09.31.16.5s.14.41.22.64c.12.33.19.62.23.87s.04.48,0,.68c-.03.2-.11.38-.22.54-.11.16-.26.31-.45.44-.26.18-.53.29-.81.34s-.55.02-.83-.06c-.27-.08-.54-.23-.8-.44-.26-.21-.5-.48-.73-.82v-.02Zm8.44-.96l1.07-.74.8,1.17-1.07.74-.81-1.17h0Zm-6.02,4.16l5.23-3.61.8,1.17-5.23,3.61-.81-1.17h0Zm2.78,4.03l3.92-5.51.81,1.17-2.89,3.94,4.7-1.3.8,1.17-6.54,1.71-.81-1.17h0Zm5.12,5.41c.2.3.44.5.7.61s.56.14.89.09l.47,1.38c-.3.06-.6.08-.9.05-.29-.03-.57-.1-.84-.21-.26-.11-.51-.27-.75-.47-.23-.2-.45-.43-.64-.7-.27-.39-.45-.79-.54-1.21-.08-.41-.09-.82,0-1.21s.25-.77.51-1.13.59-.68.99-.96c.41-.29.83-.48,1.26-.59.43-.1.84-.13,1.24-.07.4.06.78.21,1.13.44s.66.53.93.92c.29.42.47.83.54,1.25.08.42.05.83-.08,1.22-.12.39-.34.77-.65,1.12-.32.36-.72.68-1.21.97l-.81-1.18.77-.54c.4-.29.63-.62.7-.99.07-.38-.02-.76-.29-1.14-.15-.21-.32-.38-.51-.5-.19-.11-.4-.18-.63-.2-.23-.02-.47.02-.72.1-.26.09-.52.22-.78.41-.27.18-.49.38-.65.59-.16.21-.28.42-.34.64-.07.22-.08.44-.04.66.04.22.14.44.28.66h-.03Zm3.75.63l-.72.84-2.8-4.05.9-.58,2.62,3.79h0Z"/>
  <rect class="cls-8" x="219.1" y="62.19" width="27.64" height="94.68" rx="4.41" ry="4.41" transform="translate(110.59 336) rotate(-86.81)"/>
  <path class="cls-21" d="m197.98,112.29l-2.67-.15.47-8.46,2.67.15c.67.04,1.26.16,1.76.38.51.21.93.51,1.26.89.34.38.58.83.74,1.37s.21,1.14.18,1.82c-.04.68-.16,1.27-.38,1.79-.21.51-.51.94-.88,1.28-.38.34-.83.58-1.35.74-.53.16-1.13.22-1.79.18h0Zm-.85-7.19l-.32,5.8,1.1.06c.47.03.89,0,1.25-.11.36-.1.67-.27.92-.5s.44-.52.58-.88.22-.78.25-1.26c.05-.97-.14-1.71-.58-2.22s-1.14-.79-2.09-.84l-1.1-.06h0Zm9.29,6.55c.36.02.66-.04.91-.17.25-.14.46-.36.61-.65l1.37.48c-.14.28-.31.53-.51.74s-.43.39-.68.53-.53.24-.83.3c-.3.07-.61.09-.95.07-.47-.03-.9-.13-1.28-.31-.38-.19-.7-.43-.96-.74-.26-.31-.45-.67-.58-1.09s-.18-.88-.15-1.37c.03-.5.13-.95.3-1.36.18-.4.42-.74.71-1.02.29-.28.64-.49,1.04-.62.4-.14.83-.2,1.29-.17.5.03.94.14,1.32.34s.68.47.92.81.4.74.49,1.2c.09.47.1.99.02,1.56l-1.43-.08.05-.93c.02-.49-.1-.88-.35-1.16-.25-.29-.61-.45-1.08-.47-.26,0-.49.02-.71.1-.21.08-.39.21-.55.38-.15.17-.27.38-.36.63s-.14.54-.16.87c-.02.32,0,.62.06.88.06.26.16.48.29.66.13.18.3.33.5.43.2.1.44.17.7.18v-.02Zm2.81-2.57l.22,1.08-4.91-.27.09-1.07,4.6.26h0Zm2.86,4.02l-1.95-6.47,1.41.08,1.34,4.69,1.85-4.51,1.41.08-2.66,6.21-1.42-.08h.02Zm7.42-.72c.36.02.66-.04.91-.17.25-.14.46-.36.61-.65l1.37.48c-.14.28-.31.53-.51.74s-.43.39-.68.53-.53.24-.83.3c-.3.07-.61.09-.95.07-.47-.03-.9-.13-1.28-.31-.38-.19-.7-.43-.96-.74-.26-.31-.45-.67-.58-1.09s-.18-.88-.15-1.37c.03-.5.13-.95.3-1.35.18-.4.42-.74.71-1.02.29-.28.64-.49,1.04-.63s.83-.2,1.29-.17c.51.03.94.14,1.32.34s.68.47.92.81.4.74.49,1.2c.09.47.1.99.02,1.56l-1.43-.08.05-.93c.02-.49-.1-.88-.35-1.16-.25-.29-.61-.45-1.08-.47-.26,0-.49.02-.71.1-.21.08-.39.21-.55.38-.15.17-.27.38-.36.63s-.14.54-.16.87c-.02.32,0,.62.06.88.06.26.16.48.29.66.13.18.3.33.5.43s.43.17.7.18v-.02Zm2.81-2.57l.22,1.08-4.91-.27.09-1.07,4.6.26h0Zm1.49,3.94l.48-8.63,1.41.08-.48,8.63-1.42-.08h0Zm5.97.51c-.47-.03-.9-.13-1.28-.31-.38-.19-.7-.43-.96-.74-.26-.31-.45-.68-.58-1.1-.13-.42-.18-.88-.15-1.37.03-.5.13-.95.3-1.35.18-.4.41-.74.7-1.02s.64-.49,1.04-.63.83-.2,1.3-.18c.48.03.91.13,1.28.32.38.18.7.43.96.74.26.31.46.67.58,1.09.13.42.18.88.15,1.37-.03.49-.13.94-.3,1.34s-.4.74-.7,1.03c-.29.28-.64.49-1.04.63s-.83.2-1.31.17h0Zm.07-1.32c.27.02.51-.02.72-.1s.4-.21.54-.37c.16-.17.28-.38.36-.62.09-.25.14-.53.16-.84.02-.32,0-.6-.06-.86s-.15-.47-.28-.65-.3-.33-.5-.43c-.2-.1-.44-.16-.71-.18-.27,0-.51.02-.72.1s-.39.2-.54.37c-.15.16-.27.37-.35.62-.08.24-.14.52-.15.85-.02.32,0,.6.06.86s.16.47.29.66c.13.18.3.32.5.42.2.1.44.16.7.17h-.02Zm4.24,4.22l.51-9.16,1.42.08-.51,9.16-1.41-.08h0Zm3.51-2.45c-.45-.03-.83-.13-1.14-.32-.3-.19-.54-.43-.72-.74-.18-.31-.3-.67-.36-1.08-.06-.42-.08-.86-.05-1.35.03-.48.1-.93.2-1.33.11-.41.27-.75.48-1.04.21-.29.48-.5.8-.65s.7-.21,1.16-.19c.42.02.8.13,1.14.31s.63.43.87.74c.24.31.42.67.53,1.09.12.42.17.87.14,1.36s-.12.94-.29,1.34c-.16.4-.38.74-.66,1.02-.27.28-.59.49-.95.64s-.74.21-1.16.18v.02Zm-.21-1.34c.28.02.52-.02.74-.11s.4-.21.54-.38c.15-.17.27-.38.35-.62.08-.25.14-.52.15-.82.02-.31,0-.59-.06-.84s-.15-.47-.28-.65-.29-.33-.49-.43c-.2-.11-.44-.17-.72-.19-.29-.02-.54.02-.75.11s-.39.21-.54.38c-.14.17-.25.38-.34.62-.08.24-.13.52-.15.82-.02.31,0,.59.06.85.06.25.15.47.28.65s.3.33.49.43c.2.1.44.17.72.18h0Zm8.4-2.17c0-.22,0-.41-.04-.59s-.1-.33-.19-.46-.21-.23-.36-.3c-.14-.08-.32-.12-.52-.13-.2,0-.38,0-.54.07-.16.06-.29.14-.39.26s-.19.26-.25.43-.09.36-.1.58l-.3-.52c.02-.16.05-.32.09-.48.04-.17.09-.34.16-.5s.15-.32.25-.46.22-.27.37-.37c.14-.11.31-.19.5-.24.19-.06.4-.08.65-.06.37.02.69.09.97.21.28.12.5.28.68.5.18.21.3.48.38.79s.11.66.09,1.07l-.23,4.08-1.42-.08.21-3.78v-.02Zm-4.03,3.57l.35-6.34,1.41.08-.35,6.34-1.42-.08h0Zm7.84-3.36c0-.22,0-.41-.04-.59s-.1-.33-.19-.46-.21-.23-.36-.3c-.14-.08-.32-.12-.52-.13-.2,0-.38,0-.54.07-.16.06-.29.14-.39.26s-.19.26-.25.43-.09.36-.1.58l-.64-.54c.03-.27.1-.53.21-.8.11-.26.26-.5.45-.7s.41-.36.68-.48c.27-.11.58-.16.92-.14.38.02.71.09,1,.21.29.12.52.28.71.5.19.21.32.48.41.79s.12.66.09,1.07l-.23,4.08-1.42-.08.21-3.78h0Zm5.61,2.98c.36.02.66-.04.91-.17.25-.14.46-.36.61-.65l1.37.48c-.14.28-.31.53-.51.74s-.43.39-.68.53-.53.24-.83.3c-.3.07-.61.09-.95.07-.47-.03-.9-.13-1.28-.31-.38-.19-.7-.43-.96-.74-.26-.31-.45-.67-.58-1.09s-.18-.88-.15-1.37c.03-.5.13-.95.31-1.36.18-.4.41-.74.7-1.02s.64-.49,1.04-.63.83-.2,1.29-.17c.5.03.94.14,1.32.34s.68.47.92.8c.24.34.4.74.49,1.21s.1.99.03,1.56l-1.43-.08.05-.93c.02-.49-.1-.88-.35-1.16-.25-.29-.61-.45-1.08-.47-.26-.02-.49.02-.71.1-.21.08-.39.21-.54.38s-.27.38-.36.63-.14.54-.16.87c-.02.32,0,.62.06.88.06.26.16.48.29.66.13.18.3.33.5.44.2.1.43.16.7.18l-.02-.02Zm2.81-2.57l.22,1.08-4.92-.27.1-1.07,4.6.26h0Zm5.77.68c.02-.27,0-.52-.06-.73-.05-.21-.14-.4-.25-.54-.12-.15-.27-.27-.45-.36-.18-.09-.39-.14-.63-.15s-.45,0-.64.08c-.19.06-.35.17-.49.3-.13.13-.24.31-.32.52-.08.21-.12.45-.14.72l-.26-1.02c.04-.25.12-.49.22-.72.1-.24.25-.45.42-.63.18-.18.4-.33.67-.43.27-.1.59-.14.97-.12s.72.1,1.02.22.56.3.77.54c.21.24.37.53.46.88.1.35.14.76.11,1.23l-.21,3.79-1.41-.08.19-3.49h.03Zm-4.58,3.23l.35-6.34,1.41.08-.35,6.34-1.41-.08Zm6.9-4.66l.07-1.31,4.42.25-.07,1.32-4.42-.25h0Zm4.21,4.01l-.07,1.26-1.22-.07h-.12c-.3-.02-.58-.08-.82-.17-.23-.1-.43-.22-.58-.39-.16-.16-.27-.36-.35-.58-.07-.23-.1-.48-.09-.77v-.12l.37-6.55,1.41.08-.35,6.38c0,.14,0,.26.03.37.03.1.08.19.14.26.06.07.14.13.24.17.1.04.23.06.37.07l1.04.06h0Z"/>
  <rect class="cls-16" x="298.47" y="90.31" width="27.64" height="64.1" rx="4.41" ry="4.41" transform="translate(14.58 276.84) rotate(-48.82)"/>
  <path class="cls-7" d="m293.93,112.54l4.7-5.37-1.9-1.66.88-1,4.86,4.25-.88,1-1.89-1.65-4.7,5.37-1.07-.94h0Zm9.27,3.47c.18-.21.32-.41.4-.62.09-.2.14-.4.14-.58,0-.19-.04-.38-.13-.55-.09-.18-.22-.35-.4-.51-.18-.16-.36-.27-.55-.33-.19-.07-.38-.09-.57-.06-.19.02-.38.1-.57.21-.19.12-.37.28-.56.48l.43-.96c.19-.17.39-.31.62-.44.23-.12.47-.2.72-.24.25-.03.52,0,.79.08.28.08.56.25.84.5.29.25.51.52.67.81.16.28.25.58.27.9.02.32-.04.64-.18.98-.13.34-.36.68-.66,1.04l-2.5,2.86-1.07-.93,2.3-2.63h.01Zm-5.61-.27l5.57-6.37,1.07.93-5.57,6.37-1.07-.93Zm11.6,3.3c-.06-.07-.12-.15-.21-.23-.08-.08-.17-.16-.27-.25-.18-.16-.36-.27-.55-.33s-.38-.09-.57-.06c-.19.02-.38.1-.57.21-.19.12-.38.28-.56.48l.43-.96c.19-.17.39-.31.62-.44.23-.12.47-.2.72-.24.25-.03.52,0,.79.08.28.08.56.25.84.5.04.03.07.07.11.1.04.03.08.07.11.1l-.9,1.03h.01Zm-6.09,1.53l4.18-4.78,1.07.93-4.18,4.78-1.07-.93Zm6.31,4.02c.27.24.55.38.82.42.28.04.58,0,.88-.13l.79,1.22c-.28.14-.57.23-.86.27-.29.04-.58.04-.87,0-.28-.05-.56-.14-.84-.27s-.54-.31-.79-.53c-.36-.31-.63-.66-.82-1.04-.18-.38-.28-.77-.3-1.18-.01-.4.06-.81.22-1.22s.4-.81.73-1.18c.33-.38.69-.67,1.07-.88.39-.21.78-.33,1.18-.37s.8,0,1.2.15c.4.13.77.36,1.12.66.38.33.66.69.83,1.08.18.39.25.79.23,1.2s-.14.83-.36,1.25c-.22.42-.53.84-.94,1.24l-1.07-.94.61-.71c.31-.38.46-.75.44-1.13s-.21-.73-.56-1.04c-.2-.17-.4-.29-.62-.35-.22-.06-.44-.08-.66-.04-.22.04-.45.13-.67.28-.23.15-.45.34-.66.59s-.38.49-.49.73c-.11.24-.17.48-.18.7,0,.23.03.44.13.65.09.21.24.4.44.57h0Zm3.8-.3l-.49.99-3.7-3.24.73-.78,3.47,3.03h-.01Zm1.53,4.95c.27.24.55.38.82.42.28.04.58,0,.88-.13l.79,1.22c-.28.14-.57.23-.86.27-.29.04-.58.04-.87,0-.28-.04-.56-.14-.84-.27s-.54-.31-.79-.53c-.36-.31-.63-.66-.82-1.04-.18-.38-.28-.77-.3-1.18-.01-.4.06-.81.22-1.22s.4-.81.73-1.18c.33-.38.69-.67,1.07-.88.39-.21.78-.33,1.18-.37s.8,0,1.2.14c.4.14.77.36,1.12.66.38.33.66.69.83,1.08.18.39.25.79.23,1.2s-.14.83-.36,1.25c-.22.42-.53.84-.94,1.24l-1.08-.94.61-.71c.31-.38.46-.75.44-1.13s-.21-.73-.56-1.04c-.19-.17-.4-.29-.62-.35-.22-.06-.44-.08-.66-.04-.22.04-.45.13-.67.28-.23.15-.45.34-.66.59-.21.24-.38.49-.49.73-.11.24-.17.48-.18.7s.03.44.13.65c.09.21.24.4.44.57h0Zm3.8-.29l-.49.99-3.7-3.24.73-.78,3.46,3.03Zm-1.33,3.95l.96-1.09,1.09.96-.96,1.09-1.09-.96Zm7.56-3.1l.86-.98,1.06.93-.86.98-1.06-.93Zm-4.35,7.12l-.08.09c-.18.21-.38.38-.58.5-.2.12-.41.19-.62.21s-.43-.02-.65-.1-.45-.23-.68-.43l-.09-.08-.57-.5.87-.99.32.28c.11.09.21.16.31.2.1.05.2.07.29.06.09,0,.19-.04.28-.1.09-.05.19-.13.28-.24l4.63-5.29,1.06.93-4.78,5.47h0Zm3.6,2.16c-.3-.26-.54-.53-.72-.81s-.31-.56-.38-.85c-.07-.29-.08-.58-.02-.87.05-.29.16-.57.33-.86l1.24.79c-.16.3-.21.6-.15.88.07.28.24.55.53.8.26.22.51.35.75.39.24.03.44-.04.6-.22.05-.05.08-.11.11-.16.03-.06.04-.11.04-.18,0-.06,0-.14-.03-.21-.02-.07-.06-.16-.12-.26-.05-.1-.13-.23-.23-.38-.1-.16-.22-.34-.36-.55-.21-.32-.39-.6-.52-.86-.13-.26-.22-.5-.26-.73s-.03-.44.02-.64c.06-.2.18-.4.35-.59.19-.22.41-.38.66-.48.25-.1.51-.14.79-.12s.56.09.85.22c.3.13.58.32.87.57.28.24.5.5.67.77s.29.54.36.81c.07.28.09.55.04.82-.04.27-.14.53-.3.77l-1.26-.76c.08-.12.13-.24.15-.38.02-.13.02-.26,0-.39-.03-.13-.09-.26-.17-.38-.08-.13-.19-.25-.32-.37-.12-.1-.23-.18-.35-.24-.12-.06-.23-.1-.34-.12-.11-.02-.21-.02-.3,0s-.17.08-.23.15c-.06.07-.09.13-.1.21-.01.07,0,.15.02.23s.06.17.11.27.11.2.18.31c.08.13.17.28.28.44.11.17.24.36.37.57.19.29.34.55.44.79.1.24.16.46.17.66.02.2-.01.39-.08.58-.07.18-.18.36-.33.54-.21.24-.44.41-.7.53-.26.11-.53.16-.82.15-.28,0-.58-.09-.88-.23-.3-.14-.61-.34-.91-.61h-.05Z"/>
</svg>