<svg width="64" height="64" viewBox="0 0 64 64" fill="none" xmlns="http://www.w3.org/2000/svg">
<g clip-path="url(#clip0_817_105)">
<rect width="64" height="64" fill="white"/>
<path d="M31.99 47.4525C28.5275 47.4525 25.67 46.3275 23.3975 44.055C21.125 41.7825 20 38.97 20 35.5925C20 32.215 21.1475 29.4025 23.42 27.1525C25.6925 24.9025 28.55 23.7775 32.0125 23.7775C35.475 23.7775 38.3325 24.9025 40.605 27.1525C42.8775 29.4025 44.0025 32.2175 44.0025 35.5925C44.0025 38.9675 42.8775 41.7825 40.605 44.055C38.3325 46.3275 35.475 47.4525 32.035 47.4525H31.9925H31.99ZM25.6475 16.5475H38.415V20.725H25.6475V16.5475ZM36.5325 40.2875C37.7 39.055 38.285 37.495 38.285 35.6125C38.285 33.73 37.7 32.1725 36.5325 30.9375C35.365 29.7025 33.85 29.0975 31.9875 29.0975C30.125 29.0975 28.6125 29.7025 27.4425 30.9375C26.2725 32.1725 25.69 33.73 25.69 35.6125C25.69 37.495 26.275 39.0525 27.4425 40.2875C28.61 41.5225 30.125 42.1275 31.9875 42.1275C33.85 42.1275 35.3625 41.5225 36.5325 40.2875Z" fill="#121212"/>
</g>
<defs>
<clipPath id="clip0_817_105">
<rect width="64" height="64" fill="white"/>
</clipPath>
</defs>
</svg>
