<svg width="64" height="64" viewBox="0 0 64 64" fill="none" xmlns="http://www.w3.org/2000/svg">
<g clip-path="url(#clip0_817_162)">
<rect width="64" height="64" fill="#1A1A1A"/>
<path d="M29.6561 28.096C30.0891 28.096 30.4401 27.5731 30.4401 26.928C30.4401 26.2829 30.0891 25.76 29.6561 25.76C29.2231 25.76 28.8721 26.2829 28.8721 26.928C28.8721 27.5731 29.2231 28.096 29.6561 28.096Z" fill="#ADB5BD"/>
<path d="M32 16C23.16 16 16 23.16 16 32C16 40.84 23.16 48 32 48C40.84 48 48 40.84 48 32C48 23.16 40.84 16 32 16ZM27.32 40.664C28.024 41.912 28.648 42.144 30.52 41.76C32.552 41.288 32.784 41.448 32.784 43.4C32.784 45.352 32.624 45.432 30.056 45.04C28.496 44.808 26.072 43.872 24.592 42.936C19.672 39.896 16.632 29.664 20.296 28.496C21.152 28.184 21.856 27.328 21.856 26.464C21.856 25.6 22.248 24.512 22.64 23.968C23.112 23.424 24.048 22.328 24.672 21.472C25.4507 20.4853 25.6853 20.6667 25.376 22.016C24.984 23.888 25.216 24.2 26.784 24.2C28.816 24.2 30.456 22.872 30.456 21.232C30.456 20.608 29.984 20.296 29.288 20.608C28.04 21.08 27.728 20.216 28.744 19.2C29.84 18.032 36.936 19.2 38.032 20.76C39.752 23.176 39.28 24.12 36.552 23.728C34.52 23.416 33.744 23.648 32.96 24.976C31.712 27.008 32.336 27.944 33.976 26.536C34.832 25.832 35.456 25.752 36.08 26.376C36.624 26.92 35.92 27.784 33.664 29.184C31.944 30.28 30.152 31.216 29.68 31.216C29.288 31.216 28.896 31.76 28.896 32.384C28.896 33.712 29.992 33.864 32.016 32.776C33.032 32.232 33.656 32.232 33.968 32.776C34.672 33.944 35.92 33.712 35.92 32.384C35.92 31.76 36.624 30.904 37.4 30.432C39.432 29.416 39.816 29.416 39.816 30.824C39.816 31.448 39.272 31.992 38.648 31.992C38.024 31.992 37.48 32.304 37.48 32.776C37.48 33.168 37.952 33.56 38.576 33.56C39.2 33.56 40.296 34.344 40.92 35.28C41.936 36.688 42.328 36.84 43.104 35.984C43.888 35.128 43.888 34.888 43.184 34.576C41.704 34.032 41.936 33.016 43.728 32.544C45.6 32.072 45.76 33.328 44.12 37.152C43.184 39.496 42.792 39.808 41.464 39.104C40.608 38.632 39.672 37.544 39.432 36.688C38.888 34.968 38.416 34.816 36.776 35.832C36.072 36.304 34.904 36.304 33.808 35.832C29.672 34.272 25.616 37.312 27.328 40.672L27.32 40.664Z" fill="#ADB5BD"/>
</g>
<defs>
<clipPath id="clip0_817_162">
<rect width="64" height="64" fill="white"/>
</clipPath>
</defs>
</svg>
