<?xml version="1.0" encoding="UTF-8"?>
<svg id="Layer_1" data-name="Layer 1" xmlns="http://www.w3.org/2000/svg" viewBox="0 0 296 131">
  <defs>
    <style>
      .cls-1 {
        fill: #c85700;
      }

      .cls-2 {
        fill: #00c1a2;
      }

      .cls-3 {
        fill: #d88a0f;
      }

      .cls-4 {
        fill: #ccf1e1;
      }

      .cls-5 {
        fill: #1375c2;
      }

      .cls-6 {
        fill: #705df2;
      }

      .cls-7 {
        fill: #ffe2cc;
      }

      .cls-8 {
        fill: #ccf3ec;
      }

      .cls-9 {
        fill: #f5cccc;
      }

      .cls-10 {
        fill: #c00;
      }

      .cls-11 {
        fill: #f5eaff;
      }

      .cls-12 {
        fill: #cce4f7;
      }

      .cls-13 {
        fill: #fcb9bc;
      }

      .cls-14 {
        fill: #ff693a;
      }

      .cls-15 {
        fill: #e2dffc;
      }

      .cls-16 {
        fill: #2eb9dd;
      }

      .cls-17 {
        fill: #fff7cc;
      }

      .cls-18 {
        fill: #caa900;
      }

      .cls-19 {
        fill: #c3002f;
      }

      .cls-20 {
        fill: #0078d7;
      }

      .cls-21 {
        fill: #fcdcd2;
      }

      .cls-22 {
        fill: #4caf50;
      }

      .cls-23 {
        fill: #feeed4;
      }

      .cls-24 {
        fill: #aa6cdd;
      }

      .cls-25 {
        fill: #d3eafd;
      }

      .cls-26 {
        fill: #00b066;
      }

      .cls-27 {
        fill: #dff8fe;
      }

      .cls-28 {
        fill: #dbefdc;
      }
    </style>
  </defs>
  <rect class="cls-7" x="3.12" y="99.78" width="43" height="24" rx="4" ry="4" transform="translate(-50.17 25.14) rotate(-28.38)"/>
  <path class="cls-1" d="m15.38,121.32l-3.42-6.33,1.06-.58,1.44,2.67,3-1.62-1.44-2.67,1.06-.58,3.42,6.33-1.06.58-1.44-2.67-3,1.62,1.45,2.67-1.06.58Zm7.72-4.17l-2.89-5.34-1.89,1.02-.54-.99,4.83-2.61.54.99-1.88,1.01,2.89,5.34-1.06.58Zm3.65-1.97l-3.42-6.34,1.06-.57,4.35,3.16-.26-5.37,1.07-.58,3.42,6.33-1.07.58-2.27-4.21.21,4.2-.9.48-3.4-2.48,2.27,4.21-1.06.58Zm7.54-4.07l-3.42-6.33,1.06-.57,2.89,5.34,2.8-1.51.54.99-3.86,2.09Z"/>
  <rect class="cls-17" x="30.89" y="48.06" width="24" height="67" rx="4" ry="4" transform="translate(-49.24 79.42) rotate(-60.93)"/>
  <path class="cls-18" d="m20.79,74.03c-.24-.13-.44-.29-.61-.47-.16-.17-.29-.37-.38-.57-.09-.21-.15-.43-.16-.66-.02-.23,0-.47.06-.72l1.18.33c-.03.1-.05.2-.04.31,0,.11.03.21.07.31.04.1.09.19.16.27.07.09.15.15.25.21.06.03.13.06.2.08.08.02.16.03.24.04.08,0,.16,0,.25-.03.08-.03.16-.07.24-.12.05-.04.09-.08.13-.13.04-.05.08-.1.13-.16.04-.06.08-.13.13-.2.04-.08.09-.16.14-.24l2.35-4.23,1.06.59-2.35,4.23c-.07.13-.15.26-.22.37-.07.12-.15.22-.22.32-.07.1-.15.19-.24.27-.08.08-.16.15-.25.22-.31.23-.63.34-.97.34-.34,0-.71-.11-1.11-.33Zm7.78-2.2c.68.38,1.08.82,1.22,1.34.14.52.02,1.13-.37,1.83l-1.55,2.79-1.05-.58.35-.63c-.3.17-.61.24-.93.23-.32-.01-.66-.12-1.02-.32-.24-.13-.44-.29-.6-.46-.16-.18-.27-.36-.34-.56-.07-.2-.09-.41-.07-.63.02-.22.09-.43.21-.64.13-.23.28-.42.46-.55.18-.13.39-.22.62-.26.23-.04.48-.04.76,0s.58.14.9.27l1.56.63-.36.79-1.47-.59c-.18-.07-.34-.12-.49-.15-.14-.03-.27-.04-.39-.02-.12.02-.22.06-.3.12-.08.06-.15.14-.21.25-.12.21-.13.4-.06.58.08.18.25.34.52.5.15.08.29.14.43.17.15.03.29.04.43.03s.27-.04.39-.09c.12-.05.24-.12.33-.2.11-.09.21-.19.29-.31s.15-.24.21-.34l.42-.75c.09-.17.15-.32.18-.47.03-.14.03-.28-.01-.4-.03-.13-.1-.24-.2-.34-.1-.1-.22-.2-.38-.29-.29-.16-.54-.23-.76-.22-.22.01-.44.11-.64.3l-.81-.79c.36-.36.78-.56,1.25-.59.47-.04.96.09,1.48.38Zm1.54,7.21l.91-5.67,1.05.59-.72,4.09,3.09-2.77,1.05.59-4.34,3.77-1.06-.59Zm7.89-1.96c.68.38,1.08.82,1.22,1.34.14.52.02,1.13-.37,1.83l-1.55,2.79-1.05-.58.35-.63c-.3.17-.61.24-.93.23-.32-.01-.66-.12-1.02-.32-.24-.13-.44-.29-.6-.46-.16-.18-.27-.36-.34-.56-.07-.2-.09-.41-.07-.63.02-.22.09-.43.21-.64.13-.23.28-.42.46-.55.18-.13.39-.22.62-.26.23-.04.48-.04.76,0,.28.05.58.14.9.27l1.56.63-.36.79-1.47-.59c-.18-.07-.34-.12-.49-.15-.14-.03-.27-.04-.39-.02-.12.02-.22.06-.3.12-.08.06-.15.14-.21.25-.11.21-.13.4-.06.58.08.18.25.34.52.5.15.08.29.14.43.17.15.03.29.04.43.03.14-.01.27-.04.39-.09.12-.05.24-.12.33-.2.11-.09.21-.19.29-.31.08-.12.15-.24.21-.34l.42-.75c.09-.17.15-.32.18-.47.03-.14.03-.28-.01-.4-.03-.13-.1-.24-.2-.34-.1-.1-.22-.2-.38-.29-.29-.16-.54-.23-.76-.22-.22.01-.44.11-.64.3l-.81-.79c.37-.36.78-.56,1.25-.59.47-.04.96.09,1.48.38Zm2.2,7.74c-.29-.16-.54-.35-.74-.55-.2-.2-.36-.41-.46-.64-.11-.23-.16-.47-.17-.71,0-.25.03-.5.12-.77l1.17.43c-.08.28-.07.53.04.76.11.22.3.41.59.57.25.14.48.2.69.19.21-.01.36-.11.46-.29.03-.05.05-.1.06-.15.01-.05.01-.1,0-.15,0-.05-.03-.11-.07-.17-.03-.06-.08-.12-.15-.2-.06-.07-.15-.16-.26-.28-.11-.11-.24-.24-.4-.39-.23-.23-.43-.43-.59-.62-.16-.19-.27-.38-.34-.56-.07-.18-.11-.36-.1-.54.02-.18.08-.36.18-.56.12-.22.27-.39.46-.52.19-.13.4-.21.63-.24.23-.04.48-.03.75.03.27.06.54.16.82.32.27.15.51.33.7.52.19.19.34.39.44.61.11.22.17.44.18.67.02.23-.02.46-.11.69l-1.18-.41c.04-.11.06-.23.06-.34,0-.11-.03-.22-.08-.32-.05-.1-.12-.2-.21-.29-.09-.09-.2-.18-.33-.25-.11-.06-.23-.11-.34-.14-.11-.03-.21-.04-.31-.04-.09,0-.17.02-.24.06-.07.04-.13.09-.17.17-.04.06-.05.13-.05.19,0,.06.02.13.05.19.03.06.08.13.14.2.06.07.13.15.2.23.09.09.19.2.31.32.12.12.26.26.41.41.21.2.38.4.5.58.12.18.21.35.26.52.05.16.06.33.03.49-.02.17-.08.33-.18.51-.13.24-.29.42-.49.56-.2.14-.41.23-.65.27-.24.04-.5.03-.78-.04-.28-.06-.57-.18-.87-.34Zm4.94,2.75c-.36-.2-.65-.44-.87-.73-.22-.28-.36-.59-.44-.92-.08-.33-.08-.68-.01-1.04.07-.36.2-.73.4-1.08.2-.36.44-.67.72-.91.28-.25.58-.42.9-.53.33-.11.67-.14,1.02-.11.36.04.71.16,1.07.35.27.15.5.32.69.52.19.2.34.41.44.64.11.23.17.47.19.72.02.26,0,.52-.07.78l-1.21-.3c.06-.3.04-.58-.08-.82-.11-.25-.29-.43-.53-.57-.2-.11-.4-.17-.59-.18-.19-.01-.37.02-.55.1-.17.08-.34.2-.49.35-.15.16-.28.35-.41.57-.12.22-.21.44-.27.66-.05.21-.06.41-.04.6.03.19.1.36.21.51.11.15.26.28.46.39.28.16.54.22.77.18.23-.04.46-.16.67-.35l.94.84c-.21.2-.43.35-.66.47-.23.12-.47.19-.73.21-.25.03-.5,0-.76-.05-.26-.06-.52-.16-.79-.31Zm7.83-.83c-.06-.05-.13-.1-.21-.15-.08-.05-.17-.1-.27-.16-.18-.1-.35-.16-.52-.18-.17-.02-.33,0-.49.05-.15.05-.3.15-.44.28-.14.13-.26.3-.38.5l.18-.88c.13-.17.27-.33.43-.47.17-.14.35-.25.56-.32.2-.07.43-.1.67-.08.24.02.51.11.79.27.04.02.07.04.11.07.04.02.08.04.11.07l-.56,1.01Zm-4.79,2.35l2.62-4.72,1.05.59-2.62,4.72-1.05-.59Zm6.6-3.45l.54-.97,1.05.59-.54.97-1.05-.59Zm-3.02,5.44l2.62-4.72,1.05.59-2.62,4.72-1.05-.59Zm1.2,3.41l3.79-6.82,1.05.59-3.79,6.82-1.05-.59Zm3.6-.57c-.34-.19-.59-.41-.75-.66-.16-.25-.25-.53-.27-.83-.02-.3.02-.62.13-.96.11-.34.26-.69.46-1.05.2-.36.42-.68.65-.94.23-.27.48-.48.75-.62.27-.14.55-.21.85-.2.3,0,.62.1.96.29.31.17.56.39.75.66.19.27.32.57.39.89.07.32.07.67,0,1.03-.06.37-.19.73-.4,1.1-.2.37-.44.67-.72.92-.27.25-.57.43-.88.54-.31.11-.63.16-.96.13-.33-.02-.65-.12-.95-.29Zm.33-1.11c.21.11.41.18.6.19.2.01.38-.02.56-.09.18-.08.34-.19.5-.35.16-.16.3-.35.42-.57.13-.23.22-.45.27-.66.05-.22.06-.42.03-.6-.03-.19-.1-.36-.22-.52-.11-.16-.27-.3-.48-.41-.21-.12-.42-.18-.61-.2s-.38.02-.55.09c-.17.08-.33.19-.49.35-.15.16-.29.35-.41.57-.13.23-.22.45-.27.67-.05.21-.06.41-.03.6.03.19.1.36.22.52.12.16.28.29.48.4Zm4.39-1.33l.54-.98,3.29,1.83-.54.98-3.29-1.83Zm1.73,4.64l-.52.94-.9-.5-.09-.05c-.23-.13-.42-.27-.56-.43-.14-.16-.25-.33-.3-.51-.06-.18-.08-.37-.05-.58.03-.2.1-.41.22-.62l.05-.09,2.71-4.87,1.05.58-2.64,4.75c-.06.1-.1.2-.12.29-.02.09-.01.17,0,.25.02.08.06.15.12.22.07.07.15.13.26.19l.77.43Z"/>
  <rect class="cls-25" x="48" y="107" width="37" height="24" rx="4" ry="4"/>
  <path class="cls-5" d="m59.76,123.15c-.54,0-1.02-.09-1.45-.27-.43-.18-.79-.44-1.09-.77-.29-.33-.52-.72-.67-1.18-.16-.46-.24-.97-.24-1.53s.08-1.07.24-1.53c.16-.46.38-.86.67-1.18.3-.33.66-.58,1.09-.76.43-.18.91-.28,1.45-.28.42,0,.8.06,1.15.17.35.11.66.26.93.46.27.2.51.44.71.72.2.28.35.6.46.95l-1.22.34c-.07-.23-.17-.44-.28-.63-.12-.19-.26-.34-.44-.47-.17-.13-.36-.23-.58-.29-.22-.07-.46-.1-.73-.1-.35,0-.66.06-.93.19-.27.12-.5.3-.68.53-.18.23-.32.5-.42.82-.1.32-.15.68-.15,1.08s.05.75.14,1.07c.09.32.23.6.41.83.18.23.41.4.68.53.27.12.59.18.95.18.27,0,.51-.03.73-.1.22-.07.41-.17.58-.29.17-.13.32-.29.44-.48.12-.19.22-.4.28-.63l1.22.33c-.11.35-.26.67-.46.96-.2.28-.43.53-.71.72-.27.2-.58.35-.93.46-.35.11-.73.16-1.15.16Zm7.31,0c-.4,0-.77-.05-1.11-.16-.34-.11-.64-.26-.9-.45-.26-.2-.47-.44-.64-.72-.17-.28-.28-.6-.33-.94l1.25-.19c.05.22.13.41.24.58.1.17.23.31.39.42.15.11.33.2.53.25.2.06.42.08.66.08.22,0,.42-.02.6-.07.18-.05.34-.13.47-.22.13-.09.24-.2.31-.33.07-.13.11-.27.11-.42,0-.2-.06-.36-.19-.5-.13-.13-.33-.24-.6-.32l-1.86-.55c-.54-.16-.94-.39-1.21-.7-.27-.31-.4-.69-.4-1.15,0-.31.06-.6.19-.86.13-.26.31-.48.54-.66.23-.18.5-.32.82-.43.32-.1.67-.15,1.05-.15s.72.05,1.03.14c.32.09.6.23.84.41.25.18.45.4.62.67.17.26.29.56.38.89l-1.29.22c-.04-.19-.11-.36-.19-.51-.09-.15-.2-.28-.34-.38-.14-.1-.29-.18-.47-.24-.18-.05-.37-.08-.58-.08s-.39.02-.55.07c-.16.05-.3.11-.41.19-.11.08-.2.18-.26.29-.06.11-.09.23-.09.36,0,.1.02.2.06.28s.1.16.19.23c.09.07.2.14.33.19.13.06.29.11.47.17l1.28.36c.65.18,1.13.43,1.45.76.32.32.48.73.48,1.22,0,.33-.07.64-.21.92-.14.27-.33.51-.58.71-.25.2-.54.35-.89.46-.35.11-.73.16-1.15.16Zm6.72,0c-.4,0-.77-.05-1.11-.16-.34-.11-.64-.26-.9-.45-.26-.2-.47-.44-.64-.72-.17-.28-.28-.6-.33-.94l1.25-.19c.05.22.13.41.24.58.1.17.23.31.38.42.15.11.33.2.53.25s.42.08.66.08c.22,0,.42-.02.59-.07.18-.05.34-.13.48-.22.13-.09.24-.2.31-.33.07-.13.11-.27.11-.42,0-.2-.07-.36-.19-.5-.13-.13-.33-.24-.61-.32l-1.86-.55c-.54-.16-.94-.39-1.2-.7s-.4-.69-.4-1.15c0-.31.06-.6.19-.86.13-.26.3-.48.53-.66.23-.18.5-.32.82-.43.32-.1.67-.15,1.05-.15s.72.05,1.04.14c.32.09.6.23.84.41.25.18.45.4.62.67.17.26.29.56.38.89l-1.3.22c-.04-.19-.1-.36-.19-.51-.09-.15-.2-.28-.34-.38-.14-.1-.29-.18-.47-.24-.18-.05-.37-.08-.58-.08s-.39.02-.55.07c-.16.05-.3.11-.41.19-.11.08-.2.18-.26.29-.06.11-.09.23-.09.36,0,.1.02.2.06.28s.1.16.19.23.19.14.32.19c.13.06.29.11.48.17l1.28.36c.65.18,1.13.43,1.45.76.32.32.48.73.48,1.22,0,.33-.07.64-.21.92-.14.27-.33.51-.58.71-.25.2-.54.35-.89.46-.35.11-.73.16-1.15.16Z"/>
  <rect class="cls-13" x="38.23" y="37.07" width="55" height="24" rx="4" ry="4" transform="translate(-10.92 19.86) rotate(-15.88)"/>
  <path class="cls-19" d="m50.52,50.07l4.26,6.27-1.22.35-3.79-5.64.37-.1-.26,6.79-1.22.35.32-7.58,1.54-.44Zm-1.04,6.16l-.31-1.08,3.64-1.03.31,1.08-3.64,1.03Zm8.91-4c-.06-.22-.15-.42-.25-.57-.1-.16-.22-.28-.35-.37-.14-.09-.29-.14-.46-.16-.17-.02-.35,0-.55.05-.2.06-.36.14-.49.24-.13.1-.24.23-.31.38-.07.14-.11.31-.11.5,0,.19.02.4.09.62l-.49-.75c-.03-.21-.04-.43-.03-.64.02-.22.07-.43.17-.62.09-.2.23-.37.42-.53.19-.16.44-.28.75-.37.31-.09.61-.12.88-.11.28.01.53.09.77.22.23.13.44.32.62.58.18.25.32.57.43.95l.88,3.1-1.16.33-.81-2.86Zm-2.78,3.88l-1.48-5.19,1.16-.33,1.48,5.19-1.16.33Zm7.98-3.5c.22-.06.4-.15.55-.27.15-.12.26-.27.34-.44.08-.17.12-.36.12-.57,0-.21-.03-.43-.1-.67-.07-.24-.16-.45-.28-.63-.12-.17-.25-.31-.41-.41-.15-.1-.33-.16-.52-.19-.19-.02-.38,0-.59.05-.21.06-.4.15-.55.27-.15.12-.26.27-.34.44-.08.17-.12.36-.13.57,0,.21.02.43.09.67.07.24.16.45.28.63.12.17.26.31.41.41.16.1.33.16.52.19.19.02.39,0,.6-.06Zm-1.44-4.13c.37-.1.7-.13.99-.07.29.06.55.18.77.36.23.19.42.43.58.74.16.3.3.65.41,1.05.11.4.18.77.2,1.12.02.34-.01.65-.11.93-.09.28-.25.51-.47.72-.22.2-.51.35-.87.45-.34.1-.67.12-.99.08-.32-.04-.62-.15-.9-.32-.27-.17-.52-.4-.73-.69-.21-.29-.37-.64-.49-1.04-.11-.4-.16-.78-.13-1.14.03-.36.11-.69.25-.98.15-.29.34-.54.59-.74.25-.21.55-.36.88-.45Zm4.2,4.28c.11.39.16.77.14,1.14-.02.37-.1.7-.25,1-.15.3-.36.57-.64.79-.28.23-.62.4-1.03.52-.29.08-.58.12-.85.12-.27,0-.53-.04-.78-.12-.24-.08-.47-.2-.68-.36-.21-.16-.39-.36-.55-.6l1.11-.6c.17.24.37.4.61.49.25.08.52.08.83,0,.22-.06.41-.16.56-.29.15-.13.27-.28.35-.46.08-.18.12-.38.12-.59,0-.22-.03-.45-.1-.7l-1.4-4.91,1.16-.33,1.4,4.92Zm1.82-2.75c.06.22.15.41.25.57.1.16.22.28.36.37.14.09.29.14.46.16.17.02.35,0,.55-.06.2-.06.36-.14.49-.24.13-.1.23-.23.3-.38.07-.15.11-.32.12-.51,0-.19-.02-.4-.09-.62l.49.75c.03.21.04.42.02.64-.01.22-.07.43-.16.62-.09.2-.23.37-.42.53-.19.16-.44.28-.75.37s-.61.12-.88.11c-.28-.01-.53-.09-.77-.22-.24-.13-.44-.33-.62-.58-.18-.25-.32-.57-.43-.96l-.88-3.1,1.16-.33.81,2.86Zm2.78-3.88l1.48,5.19-1.16.33-1.48-5.19,1.16-.33Zm2.92,4.78l-2.01-7.07,1.16-.33,2.01,7.07-1.16.33Zm3.17-6.67c.74-.21,1.35-.18,1.81.09.47.27.81.79,1.03,1.56l.87,3.07-1.15.33-.2-.7c-.09.33-.26.6-.49.82-.24.22-.55.39-.94.5-.26.07-.51.11-.75.09-.24-.01-.45-.06-.64-.16-.19-.1-.35-.23-.49-.4-.14-.17-.24-.37-.31-.6-.07-.26-.09-.5-.06-.72.03-.22.12-.43.25-.62.13-.19.31-.37.54-.53.23-.16.51-.31.82-.45l1.55-.65.31.82-1.46.62c-.18.08-.33.15-.45.24-.12.08-.22.17-.29.26-.07.09-.11.19-.13.3-.02.1,0,.21.03.33.06.23.19.38.37.45.18.07.42.07.72-.02.16-.05.3-.11.43-.18.13-.08.23-.17.33-.28.09-.11.16-.22.21-.34.05-.13.08-.25.09-.38.02-.14.01-.28-.02-.43-.03-.14-.06-.27-.1-.39l-.24-.83c-.05-.19-.12-.34-.2-.46-.08-.12-.18-.21-.29-.28-.11-.07-.24-.1-.38-.1-.14,0-.3.02-.47.07-.31.09-.55.22-.7.39-.15.17-.23.39-.24.66l-1.13.02c0-.51.16-.95.46-1.3.3-.36.74-.62,1.32-.78Zm6.69-.69c-.08,0-.16.02-.26.04-.09.02-.19.04-.3.08-.2.06-.36.14-.49.24-.13.1-.24.23-.31.38-.07.14-.11.31-.11.5,0,.19.02.4.09.62l-.49-.75c-.03-.21-.04-.43-.03-.64.02-.22.07-.43.17-.62.09-.2.23-.37.42-.53.19-.16.44-.28.75-.37.04-.01.08-.02.12-.03.04-.01.08-.02.13-.03l.32,1.12Zm-1.73,5.05l-1.48-5.19,1.16-.33,1.48,5.19-1.16.33Z"/>
  <rect class="cls-27" x="78.9" y="50.26" width="24" height="45" rx="4" ry="4" transform="translate(15.06 161.11) rotate(-88.04)"/>
  <path class="cls-16" d="m78.7,70.27l-.08,2.43,1.62.06c.22,0,.41-.01.58-.06.17-.05.31-.12.43-.22.12-.1.21-.22.27-.37.07-.15.1-.32.11-.52,0-.2-.02-.37-.07-.52-.05-.16-.13-.28-.24-.39-.11-.11-.25-.19-.41-.25-.16-.06-.36-.09-.57-.1l-1.62-.06Zm2.7,6.17l-1.81-3.01,1.24-.21,1.96,3.27-1.39-.05Zm-2.9-.1l-1.21-.04.25-7.2,2.84.1c.42.01.79.08,1.11.2.32.11.58.28.78.49.21.21.36.46.45.76.1.29.14.62.13.99-.01.36-.08.69-.19.97-.12.29-.28.53-.51.72-.22.2-.49.34-.82.44-.32.09-.7.13-1.12.12l-1.63-.06-.09,2.51Zm7.82-.69c.31.01.56-.04.77-.16.21-.12.38-.31.51-.56l1.18.38c-.11.24-.25.45-.42.64-.17.18-.36.34-.57.47-.21.12-.44.21-.7.27-.25.06-.52.09-.8.08-.4-.01-.77-.09-1.1-.24-.32-.15-.6-.36-.83-.61-.22-.26-.4-.56-.51-.92-.12-.36-.17-.75-.16-1.17.01-.43.09-.81.23-1.16.15-.35.34-.64.58-.88.25-.24.53-.43.87-.55.33-.13.7-.18,1.1-.17.43.01.81.1,1.13.26.32.16.59.38.79.67.21.28.35.62.44,1.02.08.4.1.84.05,1.32l-1.21-.04.02-.79c0-.42-.1-.74-.32-.98-.22-.24-.53-.37-.93-.38-.22,0-.42.03-.6.1-.18.07-.33.18-.46.33-.13.15-.22.33-.29.55-.07.22-.11.46-.12.74,0,.28.01.52.07.74.06.22.15.41.26.56.11.15.26.27.43.36s.37.13.6.14Zm2.34-2.24l.21.92-4.18-.14.06-.91,3.91.13Zm3.51-2.16c.77.03,1.34.24,1.7.64.36.4.53,1,.5,1.8l-.11,3.19-1.2-.04.02-.72c-.19.28-.43.49-.72.63-.29.14-.64.2-1.05.18-.27,0-.52-.06-.74-.14-.22-.08-.41-.2-.56-.34-.15-.15-.27-.32-.35-.53-.08-.2-.12-.43-.11-.67,0-.27.06-.5.16-.7.1-.2.24-.37.43-.52.19-.14.41-.26.68-.34.27-.08.58-.14.92-.17l1.68-.15.04.87-1.58.14c-.19.02-.36.05-.5.09-.14.04-.26.09-.36.16-.1.07-.17.15-.21.24-.05.09-.07.2-.08.32,0,.24.06.42.21.54.15.13.38.19.69.2.17,0,.32,0,.46-.04.14-.04.28-.09.4-.17s.22-.16.31-.26c.09-.1.15-.21.2-.33.06-.13.1-.27.11-.41.01-.15.02-.28.03-.4l.03-.86c0-.19-.01-.36-.05-.5-.04-.14-.1-.26-.19-.35-.09-.1-.2-.17-.33-.22-.14-.05-.29-.07-.47-.08-.33-.01-.59.04-.78.15-.19.11-.34.3-.43.56l-1.08-.33c.16-.49.44-.85.84-1.1.4-.25.9-.36,1.49-.34Zm5.73,5.9c-.41-.01-.78-.1-1.11-.25-.32-.15-.59-.36-.81-.62-.22-.26-.38-.57-.49-.92-.11-.35-.15-.74-.14-1.15.01-.42.09-.8.22-1.14.14-.35.32-.64.56-.89.24-.25.53-.43.86-.56.33-.13.71-.19,1.11-.17.31.01.59.06.85.15.26.09.49.21.69.37.2.15.37.34.5.56.14.22.23.46.29.73l-1.21.28c-.08-.3-.23-.53-.44-.7-.21-.17-.45-.26-.73-.27-.23,0-.43.03-.61.1-.18.08-.32.19-.44.34-.12.15-.21.33-.27.54-.06.21-.1.44-.1.69,0,.26.01.49.06.71.05.21.13.4.24.55.11.15.25.28.42.36.17.09.36.13.59.14.32.01.58-.05.77-.19.19-.14.33-.35.44-.62l1.22.32c-.09.27-.22.51-.37.72-.15.21-.34.38-.55.52-.21.14-.44.24-.7.3-.26.07-.54.1-.84.09Zm2.96-4.33l.04-1.12,3.76.13-.04,1.12-3.76-.13Zm3.65,3.34l-.04,1.07-1.03-.04h-.1c-.26-.01-.49-.05-.7-.13-.2-.08-.37-.18-.51-.32-.14-.13-.24-.3-.31-.49-.07-.19-.1-.41-.09-.65v-.1s.19-5.57.19-5.57l1.2.04-.19,5.43c0,.12,0,.23.03.32.03.09.07.16.12.22.05.06.12.1.21.14.09.03.19.05.31.05l.88.03Z"/>
  <rect class="cls-28" x="178" y="107" width="45" height="24" rx="4" ry="4"/>
  <path class="cls-22" d="m189.86,123.15c-.43,0-.83-.06-1.18-.19-.36-.13-.66-.32-.91-.57-.25-.25-.45-.57-.59-.94-.14-.38-.21-.82-.21-1.32v-4.32h1.21v4.27c0,.33.03.61.1.86.07.24.17.44.31.61.14.16.32.28.52.36.21.08.46.12.75.12s.54-.04.75-.12c.21-.08.39-.2.52-.36.14-.16.24-.36.32-.61.07-.24.1-.53.1-.86v-4.27h1.21v4.32c0,.5-.07.93-.21,1.32-.14.38-.34.69-.6.94-.25.25-.56.44-.91.57-.35.13-.75.19-1.18.19Zm3.7-.15l2.44-3.64-2.37-3.56h1.48l1.64,2.53,1.62-2.53h1.49l-2.37,3.56,2.43,3.64h-1.47l-1.7-2.61-1.7,2.61h-1.49Zm9.37-7.2h1.21l-1.92,7.2h-1.21l1.92-7.2Zm5.41,7.35c-.43,0-.83-.06-1.18-.19-.36-.13-.66-.32-.91-.57-.25-.25-.45-.57-.59-.94-.14-.38-.21-.82-.21-1.32v-4.32h1.21v4.27c0,.33.03.61.1.86.07.24.17.44.31.61.14.16.32.28.52.36.21.08.46.12.75.12s.54-.04.75-.12c.21-.08.39-.2.52-.36.14-.16.25-.36.32-.61.07-.24.1-.53.1-.86v-4.27h1.21v4.32c0,.5-.07.93-.21,1.32-.14.38-.34.69-.6.94-.25.25-.56.44-.91.57-.35.13-.75.19-1.18.19Zm4.4-.15v-7.2h1.21v7.2h-1.21Z"/>
  <rect class="cls-8" x="95.98" y="2.97" width="45" height="24" rx="4" ry="4" transform="translate(-.9 11.99) rotate(-5.77)"/>
  <path class="cls-2" d="m105.55,20.3l-.72-7.16,1.2-.12.61,6.04,3.16-.32.11,1.12-4.37.44Zm7.6-.62c-.4.04-.77,0-1.11-.09-.34-.11-.64-.27-.9-.5-.26-.23-.47-.51-.63-.85-.16-.34-.26-.71-.31-1.13-.04-.42-.02-.81.08-1.17.09-.36.24-.68.45-.95.21-.27.47-.49.79-.67.31-.17.67-.28,1.07-.32.4-.04.78,0,1.12.1.34.1.64.27.91.5.26.22.47.51.63.84.16.34.27.71.31,1.13.04.42.02.81-.08,1.17-.09.36-.24.68-.45.96-.21.27-.47.5-.79.67-.32.17-.67.27-1.08.31Zm-.11-1.12c.23-.02.43-.08.59-.18.17-.1.3-.23.41-.38.11-.16.18-.35.22-.57.04-.22.05-.46.02-.73-.03-.27-.08-.51-.17-.71-.08-.21-.19-.38-.32-.51-.13-.14-.29-.24-.48-.29-.18-.06-.39-.08-.62-.05-.23.02-.43.08-.6.18-.16.09-.3.22-.4.38-.1.16-.18.35-.21.56-.04.22-.04.46-.02.73.03.27.08.51.17.71.08.21.19.38.33.51.13.13.29.23.47.29.18.06.39.08.61.05Zm2.85-3.6l-.11-1.11,3.75-.38.11,1.11-3.75.38Zm4.07,2.82l.11,1.06-1.03.1h-.1c-.26.04-.49.03-.71-.02-.21-.05-.39-.13-.54-.25-.15-.12-.28-.26-.37-.44-.09-.18-.15-.39-.18-.63v-.1s-.57-5.55-.57-5.55l1.19-.12.55,5.4c.01.12.04.22.07.31.04.08.09.15.15.2.06.05.14.09.23.11.09.02.2.02.32,0l.88-.09Zm-.36-3.19l-.11-1.11,3.75-.38.11,1.11-3.75.38Zm4.07,2.82l.11,1.06-1.03.1h-.1c-.26.04-.49.03-.71-.02-.21-.05-.39-.13-.54-.25-.15-.12-.28-.26-.37-.44-.09-.18-.15-.39-.18-.63v-.1s-.57-5.55-.57-5.55l1.19-.12.55,5.4c.01.12.03.22.07.31.04.08.09.15.15.2.06.05.14.09.23.11.09.02.2.02.32,0l.88-.09Zm.75-5.25l-.11-1.1,1.2-.12.11,1.1-1.2.12Zm.63,6.19l-.54-5.37,1.2-.12.54,5.37-1.2.12Zm4.97-1.47c.31-.03.55-.12.74-.27.19-.15.33-.36.43-.63l1.22.22c-.08.25-.19.48-.33.69-.14.21-.31.38-.5.54-.19.15-.41.27-.66.36-.24.09-.5.16-.79.18-.4.04-.77,0-1.12-.09-.34-.11-.64-.27-.9-.5-.26-.23-.47-.51-.63-.84-.17-.34-.27-.72-.31-1.13-.04-.42-.02-.82.08-1.18.1-.36.25-.68.46-.95.21-.27.47-.49.79-.66.32-.17.67-.27,1.06-.31.43-.04.81,0,1.15.11.34.12.63.3.88.55.24.25.43.57.57.95.13.38.21.82.23,1.3l-1.21.12-.08-.79c-.05-.41-.2-.72-.45-.93-.25-.21-.57-.29-.97-.25-.22.02-.41.08-.58.18-.16.1-.3.23-.41.39-.1.16-.18.35-.22.58-.04.23-.05.48-.02.75.03.28.08.52.17.73.09.21.2.38.33.52.14.14.29.24.48.3.18.06.39.08.61.06Zm2.02-2.53l.33.88-4.16.42-.06-.91,3.9-.39Z"/>
  <rect class="cls-9" x="111.23" y="65.87" width="24" height="81" rx="4" ry="4" transform="translate(-12.17 196.75) rotate(-74.52)"/>
  <path class="cls-10" d="m94.47,96.26l-.65,2.34,1.57.43c.21.06.4.08.58.08.17,0,.33-.05.47-.11.14-.07.25-.17.35-.3.1-.13.17-.29.23-.48.05-.19.07-.36.05-.53-.01-.16-.06-.31-.14-.43-.08-.13-.2-.24-.34-.34-.15-.1-.32-.17-.53-.23l-1.57-.43Zm1.18,6.63l-1.05-3.35,1.25.09,1.15,3.64-1.34-.37Zm-2.8-.78l-1.17-.32,1.92-6.94,2.74.76c.41.11.75.26,1.03.45.28.18.5.4.65.66.15.25.24.53.26.84.03.3,0,.64-.11.99-.1.35-.24.65-.42.9-.18.25-.4.45-.66.58-.26.14-.56.22-.9.24-.34.01-.71-.04-1.12-.15l-1.57-.44-.67,2.42Zm6.92-.61c-.06.22-.09.43-.09.62,0,.19.04.36.11.5.07.14.17.27.31.38.13.1.3.18.49.24.2.05.38.07.55.05.17-.02.32-.07.45-.16.14-.09.26-.21.36-.37.1-.16.19-.35.25-.57l.03.89c-.08.2-.19.38-.32.56-.13.18-.28.33-.46.45-.18.12-.39.2-.64.23-.24.04-.52.01-.83-.07-.31-.09-.58-.21-.81-.37-.23-.16-.41-.35-.54-.59-.13-.24-.21-.51-.23-.82-.02-.31.03-.66.13-1.04l.86-3.11,1.16.32-.79,2.86Zm4.39-1.87l-1.44,5.2-1.16-.32,1.44-5.2,1.16.32Zm1.82-1.36l1.16.32-1.92,6.94-1.16-.32,1.92-6.94Zm2.32,2.36c.34.09.64.25.89.46.25.21.45.47.59.77.14.3.22.63.25,1,.03.37-.02.76-.13,1.16s-.28.76-.49,1.06c-.21.3-.45.55-.73.73-.28.18-.58.3-.9.36-.32.06-.66.04-1-.06-.37-.1-.66-.26-.88-.46-.22-.21-.37-.46-.46-.75-.09-.29-.12-.61-.1-.96.03-.36.09-.73.21-1.13.11-.39.24-.75.4-1.07.16-.32.36-.58.58-.78.23-.2.49-.33.78-.4s.62-.05,1,.05Zm-.54,1.02c-.22-.06-.43-.08-.62-.05-.19.03-.37.1-.52.21-.15.11-.29.26-.4.45-.11.19-.21.41-.28.66-.07.24-.1.48-.1.7,0,.22.03.42.1.59.07.18.18.33.33.46.15.13.34.22.57.29.23.06.44.08.63.05.2-.03.37-.1.52-.21.16-.11.29-.26.4-.45.11-.19.21-.41.28-.67.07-.25.1-.48.1-.69,0-.22-.03-.42-.11-.6-.07-.18-.18-.33-.33-.46-.15-.13-.34-.22-.57-.29Zm2.52,7.77l1.76-2.47-.2.81-.73-6.2,1.21.33.47,4.57-.31-.09,2.71-3.69,1.16.32-4.98,6.71-1.09-.3Zm9.54.31c-.39-.11-.72-.27-1-.49-.28-.22-.5-.49-.66-.79-.16-.31-.25-.65-.28-1.02-.03-.37.01-.76.12-1.16.11-.41.28-.76.5-1.07.22-.3.47-.54.76-.72.3-.18.62-.29.97-.34.36-.05.73-.02,1.11.09.39.11.73.27,1.01.5.28.22.5.48.66.79.16.3.26.64.29,1.01.03.37,0,.76-.12,1.17s-.28.76-.5,1.06c-.21.3-.47.55-.77.73-.29.18-.62.29-.97.34-.36.04-.73.01-1.12-.1Zm.3-1.09c.22.06.43.08.61.05.19-.03.36-.1.52-.21.16-.11.3-.26.41-.45.12-.19.21-.41.28-.67.07-.26.11-.5.1-.72,0-.22-.04-.42-.12-.59-.07-.18-.19-.33-.34-.45-.15-.12-.33-.21-.56-.27-.22-.06-.43-.08-.62-.05-.19.03-.36.1-.51.21-.15.11-.29.26-.4.45-.11.19-.21.41-.28.67-.07.26-.11.5-.1.72,0,.22.04.42.12.6.08.17.19.32.33.44.15.12.33.21.55.27Zm7.78.09c.06-.22.09-.43.08-.62,0-.19-.04-.35-.11-.5-.07-.15-.17-.27-.31-.38-.13-.11-.3-.19-.49-.24-.2-.05-.38-.07-.55-.05-.17.02-.32.07-.46.16-.14.09-.25.21-.36.37-.1.16-.18.35-.25.57l-.03-.89c.08-.2.19-.39.31-.56.13-.18.28-.33.47-.45.18-.12.39-.2.64-.23.24-.04.52-.01.83.07.31.09.58.21.81.37.23.16.41.35.54.59.13.23.21.51.23.82.02.31-.02.65-.13,1.04l-.86,3.11-1.16-.32.79-2.86Zm-4.39,1.86l1.44-5.2,1.16.32-1.44,5.2-1.16-.32Zm10.73-3.33l-.65,2.34,1.57.43c.21.06.4.08.57.08s.33-.04.47-.11c.14-.07.25-.17.35-.3.1-.13.17-.29.22-.48.05-.19.07-.36.05-.53-.01-.16-.06-.31-.14-.43-.08-.13-.2-.24-.34-.34-.15-.1-.32-.17-.53-.23l-1.57-.43Zm1.18,6.62l-1.05-3.35,1.25.09,1.14,3.64-1.34-.37Zm-2.8-.78l-1.17-.32,1.92-6.94,2.74.76c.41.11.75.26,1.03.45.28.18.5.4.65.66.15.25.24.53.26.84.03.31,0,.64-.11.99-.1.35-.24.65-.42.9-.18.25-.4.45-.66.58-.26.14-.56.22-.9.24-.34.01-.71-.04-1.12-.15l-1.57-.44-.67,2.42Zm8.78-3.33c.74.21,1.25.55,1.5,1.02.26.47.28,1.1.07,1.87l-.85,3.07-1.16-.32.19-.7c-.25.23-.53.38-.85.44-.32.07-.67.04-1.07-.07-.26-.07-.49-.18-.69-.31-.19-.13-.35-.29-.47-.47-.11-.18-.18-.38-.21-.59-.03-.22-.01-.44.05-.68.07-.26.18-.47.32-.64.14-.17.32-.31.54-.4.21-.1.46-.15.74-.17.28-.02.59,0,.94.05l1.66.25-.16.86-1.57-.23c-.19-.03-.36-.04-.51-.03-.15,0-.28.03-.39.07-.11.04-.2.11-.26.19-.07.08-.12.18-.15.29-.06.23-.04.42.08.58.12.16.32.28.62.36.16.04.31.07.46.07.15,0,.29-.03.42-.07.13-.04.25-.1.36-.18.11-.08.2-.17.27-.28.09-.11.16-.24.21-.37.05-.14.09-.27.12-.38l.23-.83c.05-.19.07-.35.07-.5,0-.15-.04-.28-.11-.39-.06-.11-.15-.21-.27-.29-.12-.08-.27-.14-.44-.19-.32-.09-.58-.1-.79-.03-.21.06-.4.21-.55.44l-.98-.58c.27-.44.63-.73,1.07-.87.44-.15.96-.14,1.53.02Zm3.73.34l.29-1.07,1.16.32-.29,1.07-1.16-.32Zm-1.66,5.99l1.44-5.2,1.16.32-1.44,5.2-1.16-.32Zm2.7.75l1.96-7.08,1.16.32-1.96,7.08-1.16-.32Zm4.59,1.43c-.32-.09-.61-.21-.85-.36-.24-.14-.44-.31-.6-.51-.16-.2-.27-.41-.34-.65-.07-.24-.09-.5-.07-.78l1.24.15c-.01.29.06.53.21.73.16.19.39.33.7.42.28.08.52.08.71.02.2-.06.32-.19.38-.39.02-.06.02-.11.02-.16,0-.05-.01-.1-.04-.15-.02-.05-.06-.1-.1-.15-.05-.05-.11-.1-.19-.16-.08-.06-.18-.12-.32-.21-.13-.08-.29-.18-.48-.29-.28-.16-.52-.32-.72-.47-.2-.15-.35-.31-.47-.47-.11-.16-.19-.33-.22-.5-.03-.18-.01-.37.05-.58.07-.24.17-.44.32-.61.15-.17.34-.3.56-.39.22-.09.46-.14.74-.14.27,0,.57.03.88.12.3.08.57.2.8.34.23.14.42.3.57.49.16.19.27.39.33.61.07.22.09.45.05.7l-1.24-.12c.02-.12,0-.23-.02-.34-.03-.11-.08-.21-.15-.3-.07-.09-.16-.17-.27-.23-.11-.07-.24-.12-.38-.16-.13-.04-.24-.05-.36-.05-.11,0-.21,0-.31.04-.09.02-.16.06-.22.11-.06.05-.1.12-.12.2-.02.07-.02.14,0,.2.02.06.05.12.1.17.05.05.11.11.18.16.07.06.16.11.25.17.1.07.23.15.37.24.15.09.31.19.49.3.25.15.46.3.62.44.16.15.29.29.38.45.09.15.14.31.15.47.02.17,0,.35-.05.53-.07.26-.19.48-.35.66-.16.18-.35.32-.57.41-.22.09-.48.14-.76.15-.29,0-.59-.04-.92-.13Z"/>
  <rect class="cls-11" x="131.96" y="22.56" width="77" height="24" rx="4" ry="4" transform="translate(-2.49 16.15) rotate(-5.39)"/>
  <path class="cls-24" d="m144.06,33.83l3.05,6.94-1.26.12-2.7-6.23.38-.04-1.49,6.63-1.26.12,1.7-7.39,1.59-.15Zm-2.15,5.87l-.11-1.12,3.76-.35.11,1.12-3.76.35Zm5.76-4.52v-.15c-.04-.3-.04-.55,0-.77.05-.22.13-.4.25-.55.12-.15.29-.26.49-.34.21-.08.46-.14.75-.17l.17-.02.66-.06.09.98-.6.06c-.13.01-.24.04-.33.07-.08.03-.15.08-.2.14-.05.06-.08.13-.1.23-.01.09-.02.2,0,.33l.53,5.64-1.2.11-.52-5.5Zm-.75,1.32l-.11-1.12,3.37-.32.1,1.12-3.36.32Zm3.56-.34l-.11-1.12,3.75-.35.1,1.11-3.75.35Zm4.05,2.84l.1,1.07-1.03.1h-.1c-.26.03-.5.02-.71-.02-.21-.05-.39-.13-.54-.25-.15-.12-.27-.27-.37-.45-.09-.18-.15-.39-.17-.63v-.1s-.53-5.55-.53-5.55l1.19-.11.51,5.41c.01.12.04.22.07.31.04.08.09.15.15.2.06.05.14.09.23.11.09.02.2.02.32.01l.88-.08Zm3.4-.21c.31-.03.55-.12.74-.26.19-.15.34-.36.43-.62l1.22.23c-.08.25-.19.48-.34.69-.14.2-.31.38-.51.53-.19.15-.41.27-.66.36-.24.09-.51.15-.79.18-.4.04-.77,0-1.12-.1-.34-.11-.64-.28-.9-.5-.26-.23-.46-.51-.63-.84-.16-.34-.26-.72-.3-1.14-.04-.42-.01-.82.08-1.18.1-.36.25-.68.46-.95.21-.27.48-.49.79-.66.32-.17.67-.27,1.07-.31.43-.04.81,0,1.15.12.34.12.63.31.87.56.24.25.43.57.56.95.13.38.21.82.22,1.31l-1.21.11-.08-.79c-.05-.41-.2-.72-.44-.93-.25-.21-.57-.3-.97-.26-.22.02-.41.08-.58.18-.17.1-.3.22-.41.39-.1.16-.18.35-.22.58-.04.23-.05.48-.02.75.03.28.08.52.16.73.09.21.2.38.33.52.13.14.29.24.48.3.18.06.39.08.61.06Zm2.04-2.52l.32.88-4.17.39-.06-.91,3.9-.37Zm4.27-1.51c-.08,0-.17-.01-.26,0-.09,0-.2,0-.31.02-.2.02-.38.07-.53.15-.15.08-.28.18-.37.32-.1.13-.16.29-.2.48-.04.18-.05.39-.03.63l-.34-.83c0-.21.04-.43.09-.64.06-.21.15-.41.28-.58.13-.18.3-.32.51-.44.21-.12.48-.2.8-.23.04,0,.09,0,.12,0,.04,0,.09,0,.13,0l.11,1.15Zm-2.62,4.65l-.51-5.38,1.2-.11.51,5.38-1.2.11Zm5.97-.56l-.68-7.17,4.64-.44.11,1.12-3.43.32.17,1.77,2.84-.27.11,1.12-2.84.27.19,2.03,3.43-.32.11,1.12-4.64.44Zm5.78-6.09v-.15c-.04-.3-.03-.55,0-.77.05-.22.13-.4.25-.55.12-.15.29-.26.49-.34.21-.08.46-.14.75-.17l.17-.02.66-.06.09.98-.6.06c-.13.01-.24.04-.32.07-.08.03-.15.08-.2.14-.05.06-.08.13-.1.23-.02.09-.02.2,0,.33l.53,5.63-1.2.11-.52-5.5Zm-.75,1.32l-.1-1.12,3.37-.32.1,1.12-3.37.32Zm4.1-1.63v-.15c-.04-.3-.03-.55,0-.77.05-.22.13-.4.25-.55.12-.15.29-.26.49-.34.21-.08.46-.14.75-.17l.17-.02.66-.06.09.98-.6.06c-.13.01-.24.04-.33.07-.08.03-.15.08-.2.14-.05.06-.08.13-.1.23-.01.09-.02.2,0,.33l.53,5.63-1.2.11-.52-5.5Zm-.75,1.32l-.11-1.12,3.37-.32.1,1.12-3.37.32Zm6.67,2.71c.31-.03.55-.12.74-.26.19-.15.34-.36.43-.62l1.22.23c-.08.25-.19.48-.34.69-.14.2-.31.38-.51.53-.19.15-.41.27-.66.36-.24.09-.51.15-.79.18-.4.04-.77,0-1.12-.1-.34-.11-.64-.28-.9-.5-.26-.23-.46-.51-.63-.84-.16-.34-.26-.72-.3-1.14-.04-.42-.01-.82.08-1.18.1-.36.26-.68.46-.95.21-.27.48-.49.79-.66.32-.17.67-.27,1.07-.31.43-.04.81,0,1.15.12.34.12.63.31.87.56.24.25.43.57.56.95.13.38.21.82.22,1.31l-1.21.11-.08-.79c-.05-.41-.2-.72-.44-.93-.25-.21-.57-.3-.97-.26-.22.02-.41.08-.58.18-.17.1-.3.22-.41.39-.1.16-.18.35-.22.58-.04.23-.05.48-.02.75.03.28.08.52.16.73.09.21.2.38.33.52.13.14.29.24.48.3.18.06.39.08.61.06Zm2.04-2.52l.32.88-4.17.39-.06-.91,3.9-.37Zm4.01,3.06c-.41.04-.79,0-1.13-.1-.34-.11-.63-.28-.88-.51-.25-.23-.45-.51-.6-.85-.15-.34-.25-.71-.29-1.12-.04-.41-.01-.8.08-1.16.09-.36.24-.68.44-.95.21-.27.47-.5.78-.67.32-.17.68-.27,1.08-.31.31-.03.59-.02.86.04.27.05.51.15.73.28.22.13.41.29.57.49.16.2.29.43.38.69l-1.16.44c-.12-.28-.3-.49-.53-.63s-.48-.2-.76-.17c-.23.02-.43.08-.59.18-.16.1-.3.23-.4.39-.1.16-.17.35-.2.57-.03.21-.04.45-.01.7.02.26.07.49.15.69.08.2.18.38.31.52.13.14.28.24.46.31.18.06.38.08.6.06.32-.03.57-.13.74-.29.17-.16.29-.39.35-.67l1.25.16c-.06.28-.15.53-.28.76-.13.23-.29.42-.48.59-.19.16-.41.29-.66.39-.24.1-.52.16-.82.19Zm2.38-4.67l-.1-1.12,3.75-.35.1,1.11-3.75.35Zm4.05,2.84l.1,1.07-1.03.1h-.1c-.26.03-.49.02-.71-.02-.21-.05-.39-.13-.54-.25-.15-.12-.27-.27-.37-.45-.09-.18-.15-.39-.17-.63v-.1s-.53-5.55-.53-5.55l1.19-.11.51,5.41c.01.12.04.22.07.31.04.08.09.15.15.2.06.05.14.09.23.11.09.02.2.02.32.01l.88-.08Zm3.36.91c-.34.03-.64.02-.92-.03-.28-.05-.53-.13-.74-.26-.22-.13-.4-.29-.55-.49-.15-.2-.26-.43-.34-.7l1.21-.31c.09.28.25.48.46.6.21.12.48.17.81.14.29-.03.51-.11.68-.23s.23-.29.21-.5c0-.06-.02-.11-.04-.16-.02-.05-.05-.09-.09-.13-.04-.04-.09-.07-.15-.1-.06-.03-.14-.05-.23-.08-.09-.02-.22-.05-.37-.08-.15-.03-.34-.06-.55-.1-.32-.05-.6-.11-.84-.18-.24-.07-.44-.16-.6-.27-.16-.11-.29-.24-.38-.39-.09-.16-.14-.34-.16-.56-.02-.25,0-.48.09-.69.08-.21.21-.4.38-.56.17-.16.38-.3.64-.4.25-.1.54-.17.86-.2.31-.03.6-.02.87.03.26.05.5.13.71.25.21.12.39.27.53.45.14.18.24.39.3.63l-1.2.33c-.03-.12-.08-.22-.15-.31-.07-.09-.15-.17-.25-.22-.1-.06-.21-.1-.34-.12-.13-.02-.27-.03-.41-.02-.13.01-.25.04-.35.08-.11.04-.2.08-.27.14-.07.05-.13.12-.17.19-.04.07-.05.15-.04.23,0,.07.03.13.07.18.04.05.09.09.15.13.06.03.14.06.23.09.09.03.19.05.3.07.12.03.27.06.43.09.17.03.36.06.57.1.29.05.54.11.74.19.21.08.37.17.51.28.13.11.24.24.31.39.07.15.12.32.14.52.03.27,0,.52-.09.74-.08.23-.21.42-.39.59-.18.17-.39.3-.66.41-.27.11-.57.17-.91.21Z"/>
  <rect class="cls-23" x="170.01" y="45.78" width="65" height="24" rx="4" ry="4" transform="translate(-5.21 92.44) rotate(-25.4)"/>
  <path class="cls-3" d="m183.1,71.42l-3.09-6.5,1.09-.52,3.09,6.5-1.09.52Zm2.54-1.21l-3.15-6.64,1.09-.52,3.15,6.64-1.09.52Zm2.53-1.2l-3.15-6.64,1.09-.52,3.15,6.64-1.09.52Zm2.4-3.83c.1.21.21.38.34.53.13.14.27.24.42.31.15.06.31.09.48.08.17-.01.35-.06.53-.15.18-.09.33-.19.45-.32.11-.12.19-.27.24-.42.05-.16.06-.33.03-.52-.03-.19-.09-.39-.19-.6l.61.66c.07.2.11.41.13.63.02.22,0,.43-.06.64-.06.21-.17.41-.33.59-.16.19-.38.35-.68.49-.29.14-.58.22-.85.25-.28.03-.54,0-.79-.09-.25-.09-.49-.25-.71-.47-.22-.22-.41-.51-.58-.88l-1.38-2.91,1.09-.52,1.27,2.68Zm2.1-4.28l2.32,4.88-1.09.52-2.32-4.88,1.09-.52Zm5.54,3.51c-.3.14-.6.24-.88.29-.28.05-.54.05-.79,0-.25-.05-.47-.14-.68-.27-.21-.14-.39-.32-.56-.54l1.03-.7c.18.23.4.36.64.41.24.04.51,0,.81-.14.26-.12.45-.27.56-.45s.12-.36.03-.54c-.02-.05-.05-.1-.09-.14-.03-.04-.08-.07-.13-.09-.05-.02-.11-.04-.18-.04-.06,0-.15,0-.25,0-.1,0-.22.03-.38.05-.15.03-.34.06-.55.1-.32.06-.6.1-.85.11-.25.01-.47,0-.66-.05-.19-.05-.36-.12-.49-.24-.14-.12-.25-.27-.35-.47-.11-.23-.16-.45-.15-.67,0-.23.06-.45.17-.66.1-.21.26-.41.46-.59.2-.19.45-.35.74-.48.28-.13.56-.22.83-.26.27-.05.52-.05.76,0,.24.04.46.12.65.24.2.12.36.28.5.49l-1.02.73c-.07-.1-.15-.18-.24-.24-.09-.06-.2-.1-.31-.12-.11-.02-.23-.02-.36,0-.13.02-.26.06-.39.13-.12.06-.22.12-.31.19-.09.07-.16.15-.21.23-.05.08-.08.15-.1.23,0,.08,0,.16.04.23.03.07.07.12.13.15.05.03.11.06.19.07.07.01.15.01.25,0,.09,0,.2-.02.31-.03.13-.02.27-.04.44-.06.17-.03.36-.06.57-.1.29-.05.54-.08.76-.07.22,0,.41.03.57.09.16.06.3.14.42.26.12.12.22.26.31.44.12.24.17.49.17.73,0,.24-.05.47-.16.69-.11.22-.27.42-.48.61s-.47.36-.78.51Zm.55-5.16l-.48-1.01,3.4-1.61.48,1.01-3.4,1.61Zm4.78,1.28l.46.97-.93.44-.09.04c-.24.11-.46.18-.68.21-.21.02-.41,0-.59-.05-.18-.06-.35-.16-.5-.29-.15-.14-.27-.32-.38-.54l-.04-.09-2.39-5.04,1.08-.51,2.33,4.91c.05.11.11.2.17.27.06.07.13.11.21.14.08.03.16.04.25.03.09-.01.19-.05.3-.1l.8-.38Zm2.37-4.79c-.08.02-.16.05-.25.08-.09.03-.18.08-.28.12-.18.09-.33.19-.45.32-.12.12-.2.27-.24.42-.04.15-.05.33-.03.52.03.19.09.39.19.6l-.61-.66c-.07-.2-.11-.41-.13-.63-.02-.22,0-.43.06-.64.06-.21.17-.41.33-.59.16-.19.38-.35.68-.49.04-.02.08-.03.12-.05.04-.02.08-.04.12-.05l.5,1.05Zm-.87,5.26l-2.32-4.88,1.09-.52,2.32,4.88-1.09.52Zm3.08-7.61c.7-.33,1.3-.4,1.8-.21.51.19.93.64,1.27,1.37l1.37,2.88-1.08.51-.31-.65c-.04.34-.15.64-.35.89-.2.26-.48.47-.85.65-.25.12-.49.19-.72.22-.24.03-.45.01-.66-.05-.2-.06-.39-.17-.55-.31-.16-.14-.3-.33-.4-.54-.11-.24-.17-.47-.18-.7,0-.22.04-.44.14-.65.1-.21.25-.42.45-.62.2-.2.45-.39.74-.58l1.42-.9.44.76-1.33.85c-.16.1-.3.21-.41.31-.11.1-.19.2-.25.31-.05.1-.08.21-.08.31,0,.1.03.21.08.32.1.21.25.34.44.38.19.04.43,0,.71-.14.15-.07.28-.16.39-.25.11-.1.2-.21.27-.33.07-.12.12-.24.15-.37.03-.13.04-.26.03-.39,0-.14-.03-.28-.09-.42-.05-.14-.11-.26-.16-.37l-.37-.78c-.08-.17-.17-.31-.27-.42-.1-.11-.21-.18-.33-.22-.12-.05-.25-.06-.4-.04-.14.02-.29.07-.45.14-.29.14-.5.31-.62.49-.12.19-.16.42-.13.69l-1.12.2c-.08-.51,0-.96.24-1.36.24-.4.63-.73,1.17-.99Zm3.24-.13l-.48-1.01,3.4-1.61.48,1.01-3.4,1.61Zm4.78,1.28l.46.97-.93.44-.09.04c-.24.11-.46.18-.68.21-.21.02-.41,0-.59-.05-.18-.06-.35-.16-.5-.29-.15-.14-.27-.32-.38-.54l-.04-.09-2.39-5.04,1.08-.51,2.33,4.91c.05.11.11.2.17.27.07.07.13.11.21.14.08.03.16.04.25.03.09-.01.19-.05.3-.1l.8-.38Zm3.6-.36c-.36.17-.72.27-1.08.29-.36.01-.7-.04-1.02-.16-.32-.13-.61-.32-.88-.58-.27-.26-.49-.58-.67-.96-.18-.38-.29-.76-.32-1.13-.03-.37,0-.72.11-1.04.11-.33.28-.62.52-.89.24-.27.54-.49.9-.66.37-.17.73-.27,1.09-.28.36-.02.7.04,1.02.16.32.12.61.32.88.58.27.26.49.58.67.96.18.38.29.76.32,1.13.04.37,0,.72-.1,1.05-.11.33-.28.62-.52.89-.24.26-.54.48-.91.66Zm-.49-1.02c.21-.1.37-.22.5-.36.12-.15.21-.31.26-.5.05-.19.05-.39.01-.61-.03-.22-.11-.45-.22-.69-.12-.24-.25-.45-.4-.61-.15-.17-.3-.29-.48-.37-.17-.08-.36-.12-.55-.12-.19,0-.39.06-.6.16-.21.1-.38.22-.5.37-.12.14-.21.31-.25.5-.04.18-.05.39-.01.6.04.22.11.45.23.69.12.24.25.45.4.61.15.17.31.29.48.37.17.08.35.12.54.11.19,0,.39-.06.59-.15Zm4.71-6c-.08.02-.16.05-.25.08-.09.03-.18.08-.28.12-.18.09-.33.19-.45.32-.12.12-.2.27-.24.42-.04.15-.05.33-.03.52.03.19.09.39.19.6l-.61-.66c-.07-.2-.11-.41-.13-.63-.02-.22,0-.43.06-.64.06-.21.17-.41.33-.59.16-.19.39-.35.68-.49.04-.02.08-.03.12-.05.04-.02.08-.04.12-.05l.5,1.05Zm-.87,5.26l-2.32-4.88,1.09-.52,2.32,4.88-1.09.52Z"/>
  <rect class="cls-21" x="221.49" y="57.19" width="46" height="24" rx="4" ry="4" transform="translate(-7.42 35.94) rotate(-8.28)"/>
  <path class="cls-14" d="m231.27,75.15l-1.04-7.12,4.37-.64.16,1.12-3.17.46.3,2.08,2.57-.37.16,1.12-2.57.37.41,2.81-1.2.17Zm4.46-6.93l-.16-1.09,1.19-.17.16,1.09-1.19.17Zm.9,6.16l-.78-5.34,1.19-.17.78,5.34-1.19.17Zm4.87-1.9c.23-.03.42-.1.58-.2.16-.1.29-.23.39-.39.1-.16.17-.34.2-.54.03-.21.03-.43,0-.68-.04-.25-.1-.47-.2-.66-.09-.19-.21-.34-.35-.46-.14-.12-.3-.21-.49-.25-.18-.05-.38-.06-.59-.02-.22.03-.41.1-.58.2-.16.1-.29.23-.39.39-.1.16-.17.34-.2.54-.03.21-.03.43,0,.67.04.25.1.47.19.66.1.19.21.34.35.46.14.12.31.2.49.25.18.05.38.06.6.02Zm-.88-4.29c.38-.06.71-.04.99.06s.52.25.72.46c.2.21.36.48.48.81.12.32.21.69.27,1.09.06.41.08.79.05,1.13-.02.34-.1.65-.23.91-.13.26-.31.48-.56.65-.24.17-.55.28-.93.33-.35.05-.68.03-.99-.05-.31-.09-.6-.23-.85-.44-.25-.21-.46-.47-.63-.78-.17-.32-.29-.68-.35-1.1-.06-.42-.05-.8.02-1.15.07-.35.2-.67.38-.93.18-.27.41-.49.69-.66.28-.17.59-.28.94-.33Zm3.59,4.8c.06.41.06.79,0,1.15-.07.36-.19.68-.38.96-.18.28-.43.52-.74.7-.31.19-.67.31-1.09.38-.3.04-.59.05-.86,0-.27-.03-.52-.11-.76-.22-.23-.11-.44-.26-.63-.45-.19-.19-.34-.41-.46-.67l1.18-.45c.13.26.31.45.54.56.23.11.51.15.83.1.23-.03.43-.1.6-.21.17-.11.31-.24.4-.41.1-.17.17-.36.19-.57.03-.22.03-.45,0-.71l-.73-5.05,1.19-.17.74,5.06Zm4.16-3.57c-.03-.18-.07-.34-.13-.48-.06-.14-.14-.26-.24-.35-.09-.09-.21-.15-.35-.19-.13-.04-.29-.04-.46-.02-.17.02-.32.07-.44.15-.12.07-.22.17-.28.28-.07.11-.11.25-.13.4-.02.15-.01.32.01.5l-.33-.39c0-.13-.01-.27,0-.42,0-.15.02-.3.05-.44.03-.15.07-.29.13-.43.06-.14.14-.26.24-.37.1-.11.23-.21.37-.29.15-.08.32-.13.53-.16.31-.05.59-.04.84,0s.47.15.65.3c.18.15.33.35.45.59.12.24.2.53.25.88l.5,3.44-1.19.17-.46-3.19Zm-2.75,3.65l-.78-5.34,1.19-.17.78,5.34-1.19.17Zm5.96-4.12c-.03-.18-.07-.34-.13-.48-.06-.14-.14-.26-.24-.35-.1-.09-.22-.15-.35-.19-.13-.04-.29-.04-.46-.02-.17.02-.32.07-.44.15-.12.07-.21.17-.28.28-.07.11-.11.25-.13.4-.02.15-.01.32.01.5l-.62-.34c-.02-.23,0-.46.04-.7.05-.24.14-.46.26-.66.12-.2.28-.37.49-.51.21-.14.45-.23.74-.27.32-.05.61-.04.87,0,.26.05.48.15.67.3.19.15.35.34.48.59.12.24.21.53.26.88l.5,3.44-1.19.17-.46-3.19Zm4.3-2.98c.76-.11,1.36,0,1.79.33.43.33.7.89.82,1.68l.46,3.16-1.19.17-.1-.72c-.14.31-.34.56-.6.75-.26.19-.6.31-1,.37-.27.04-.52.04-.75,0-.23-.04-.44-.12-.62-.24-.17-.12-.32-.27-.43-.46-.11-.19-.19-.4-.22-.64-.04-.26-.03-.5.04-.72.06-.21.17-.41.33-.58.16-.17.36-.33.61-.46.25-.13.54-.24.88-.33l1.62-.44.2.85-1.53.42c-.19.05-.35.11-.48.18-.13.06-.24.14-.33.22-.08.08-.14.18-.17.28-.03.1-.04.21-.02.33.03.23.14.4.3.5.17.1.41.12.71.08.17-.02.31-.07.45-.13.13-.06.26-.14.36-.23.1-.09.19-.2.26-.31.07-.12.11-.24.14-.36.04-.14.05-.28.04-.43-.01-.15-.03-.28-.04-.4l-.12-.85c-.03-.19-.08-.35-.14-.48-.06-.13-.15-.24-.25-.31-.1-.08-.22-.13-.37-.15-.14-.02-.3-.02-.47,0-.32.05-.57.14-.74.29-.17.15-.28.35-.32.62l-1.13-.13c.07-.51.28-.92.63-1.23.35-.31.82-.51,1.41-.6Z"/>
  <rect class="cls-4" x="117.58" y="26.37" width="24" height="73" rx="4" ry="4" transform="translate(-12.8 84.57) rotate(-34.55)"/>
  <path class="cls-26" d="m116.37,40.03l-2,1.38.92,1.34c.12.18.25.32.39.43.14.11.28.18.43.21.15.03.3.03.46,0,.16-.04.32-.11.48-.22.16-.11.29-.23.38-.37.09-.13.15-.28.17-.43.02-.15,0-.31-.04-.48-.05-.17-.14-.34-.26-.52l-.92-1.34Zm-3.35,5.83l1.35-3.25.9.87-1.46,3.52-.79-1.15Zm-1.65-2.39l-.69-1,5.93-4.08,1.61,2.34c.24.35.41.68.5,1.01.1.32.12.63.07.92-.05.29-.16.56-.34.82-.18.25-.42.48-.72.69-.3.21-.6.35-.9.42-.3.08-.59.08-.88.02-.29-.06-.57-.19-.84-.4-.27-.2-.52-.48-.76-.83l-.92-1.34-2.07,1.43Zm5.21,5.88c.17.25.37.43.59.52.22.1.48.12.75.07l.4,1.17c-.26.05-.51.07-.77.04-.25-.02-.49-.08-.71-.18-.22-.1-.43-.23-.63-.4-.2-.17-.38-.37-.54-.6-.23-.33-.38-.67-.46-1.03-.07-.35-.07-.7,0-1.03.07-.33.22-.65.43-.96.22-.31.5-.58.84-.82.35-.24.71-.41,1.07-.5.36-.09.72-.11,1.05-.06.34.05.66.18.96.37.3.19.56.45.79.78.24.35.4.71.46,1.06.06.36.04.7-.07,1.03-.1.33-.29.65-.56.95-.27.3-.61.58-1.03.83l-.69-1,.65-.45c.34-.24.54-.53.6-.84.06-.32-.02-.64-.24-.97-.12-.18-.27-.32-.44-.42-.16-.1-.34-.15-.54-.17-.19-.01-.4.02-.61.09-.22.07-.44.19-.67.34-.23.16-.41.32-.56.5-.14.18-.24.36-.29.54-.06.18-.07.37-.03.56.03.19.11.38.24.56Zm3.19.55l-.61.71-2.37-3.45.77-.49,2.22,3.22Zm-.86,4.79c-.19-.28-.33-.55-.42-.82-.09-.27-.14-.53-.13-.78,0-.25.06-.49.16-.72.1-.23.25-.44.45-.64l.86.91c-.19.22-.3.45-.3.7,0,.25.09.5.27.77.16.24.34.4.53.48.19.08.37.06.54-.06.05-.03.09-.07.12-.11.03-.04.06-.09.07-.14.02-.05.02-.11.01-.18,0-.07-.02-.15-.04-.24-.02-.09-.06-.21-.11-.36-.05-.15-.11-.32-.18-.53-.11-.31-.19-.58-.25-.82-.05-.24-.07-.46-.06-.66.01-.2.07-.37.15-.53.09-.15.23-.29.41-.42.21-.14.42-.23.64-.26.23-.03.45,0,.68.06.23.07.44.19.66.36.22.17.41.39.6.65.18.26.31.52.39.77.09.26.13.5.12.75,0,.24-.04.47-.14.68-.09.21-.22.4-.41.57l-.88-.89c.09-.08.16-.17.2-.28.05-.1.07-.21.08-.32,0-.11-.02-.23-.06-.35-.04-.13-.1-.25-.19-.37-.07-.11-.15-.2-.24-.27-.08-.08-.17-.13-.26-.17-.08-.04-.17-.06-.24-.06-.08,0-.15.03-.22.07-.06.04-.1.09-.13.15-.02.06-.04.12-.04.19,0,.07.01.15.03.24.02.09.05.19.08.3.04.12.08.26.13.42.06.16.12.35.19.54.1.28.16.52.19.74s.03.41,0,.58c-.03.17-.09.32-.19.46-.1.14-.22.26-.39.37-.22.15-.45.25-.69.29-.24.04-.47.02-.7-.05-.23-.07-.46-.2-.68-.38-.22-.18-.43-.41-.62-.69Zm.02,4l6.42-4.42.68.99-6.42,4.42-.68-.99Zm3.48,1.08c-.22-.32-.35-.63-.38-.93-.03-.3.01-.59.12-.87.12-.28.3-.55.54-.8.25-.26.54-.5.88-.73.34-.23.67-.42,1-.56.33-.14.65-.21.95-.22.3,0,.59.06.85.2.27.14.51.36.73.68.2.29.33.6.38.93.06.33.04.65-.05.97-.08.32-.24.63-.45.93-.22.3-.5.57-.84.8-.35.24-.7.41-1.06.5-.36.1-.7.13-1.03.09-.33-.04-.64-.14-.92-.31-.28-.17-.53-.39-.73-.68Zm.79-.85c.13.19.28.34.45.44.17.1.35.16.54.17.19.01.39-.02.6-.09.21-.07.42-.18.63-.32.22-.15.39-.31.53-.48.14-.17.24-.35.29-.53.06-.18.07-.37.04-.56-.03-.19-.11-.39-.25-.58-.14-.2-.29-.35-.46-.45-.17-.1-.35-.15-.54-.16-.19,0-.39.02-.59.1-.2.07-.41.18-.62.33-.22.15-.4.31-.54.48-.14.17-.24.34-.3.52-.06.18-.07.37-.03.56.03.19.12.38.25.57Zm2.57,5.73c-.23-.33-.38-.67-.46-1.02-.07-.35-.07-.7,0-1.03.08-.34.22-.66.44-.96.22-.3.5-.57.84-.81.35-.24.7-.41,1.07-.5.36-.09.71-.11,1.05-.06.34.05.66.18.96.37.3.19.57.45.79.78.23.33.38.68.45,1.03.07.35.07.69,0,1.03-.07.34-.22.66-.43.96-.21.31-.49.58-.84.82-.35.24-.7.4-1.06.49-.36.09-.71.12-1.05.06-.34-.05-.66-.18-.96-.37-.3-.19-.56-.46-.8-.79Zm.93-.64c.13.19.28.33.44.43.17.1.34.16.53.17.19.02.4-.01.6-.08.21-.07.43-.18.65-.33.22-.15.4-.32.54-.49.14-.17.24-.35.29-.53.05-.18.06-.37.03-.56-.04-.19-.12-.38-.25-.57-.13-.19-.28-.34-.44-.44-.16-.1-.34-.16-.53-.17-.19-.02-.39.01-.6.08-.21.07-.42.18-.65.34-.22.15-.4.32-.54.49s-.24.35-.29.54c-.05.18-.06.37-.03.55.04.19.12.38.25.56Zm5.9,5.07c.19-.13.35-.27.46-.42.12-.15.2-.3.23-.45.04-.16.04-.32,0-.48-.03-.17-.11-.33-.22-.5-.12-.17-.24-.3-.38-.39s-.29-.15-.46-.17c-.16-.02-.33,0-.51.06-.18.06-.37.15-.56.28l.55-.7c.19-.1.39-.18.6-.23.21-.05.43-.07.64-.04.22.03.43.1.64.23.21.13.4.32.59.59.18.27.31.53.38.8.08.27.09.54.04.8-.05.26-.17.52-.35.77-.18.25-.43.49-.76.71l-2.66,1.83-.68-.99,2.45-1.68Zm-4.56-1.39l4.45-3.06.68.99-4.45,3.06-.68-.99Zm4.61,6.95c-.19-.28-.33-.55-.42-.82-.1-.27-.14-.53-.13-.78,0-.25.06-.49.16-.72.1-.23.25-.44.45-.64l.86.91c-.2.22-.3.45-.3.7,0,.25.09.5.27.77.17.24.34.4.53.48.19.08.37.06.54-.06.05-.03.09-.07.12-.11.03-.04.06-.09.07-.14.02-.05.02-.11.01-.18,0-.07-.02-.15-.05-.24-.02-.09-.06-.21-.11-.36-.05-.15-.11-.32-.18-.53-.11-.31-.19-.58-.25-.82-.05-.24-.07-.46-.06-.66.01-.2.07-.37.15-.53.09-.15.23-.29.41-.42.21-.14.42-.23.64-.26.23-.03.45,0,.68.06.23.07.45.19.66.36.21.17.41.39.6.65.18.26.31.52.39.77.09.26.13.5.12.75,0,.24-.04.47-.14.68-.09.21-.22.4-.41.57l-.88-.89c.09-.08.16-.17.2-.28.05-.1.07-.21.07-.32,0-.11-.02-.23-.06-.35-.04-.13-.1-.25-.19-.37-.07-.11-.15-.2-.24-.27-.09-.08-.17-.13-.26-.17-.08-.04-.16-.06-.24-.06-.08,0-.15.03-.22.07-.06.04-.1.09-.13.15-.02.06-.04.12-.04.19s.01.15.03.24c.02.09.05.19.08.3.04.12.08.26.13.42.06.16.12.35.19.54.1.28.16.52.19.74.03.22.03.41,0,.58-.03.17-.09.32-.19.46-.09.14-.22.26-.38.37-.22.15-.45.25-.69.29-.24.04-.47.02-.7-.05-.23-.07-.46-.2-.68-.38-.22-.18-.43-.41-.62-.69Zm7.18-.8l.91-.63.68.99-.91.63-.68-.99Zm-5.12,3.53l4.45-3.06.68.99-4.45,3.06-.68-.99Zm2.36,3.43l3.34-4.68.68.99-2.46,3.34,4-1.1.68.99-5.56,1.45-.69-1Zm4.35,4.62c.17.25.37.43.59.52.22.1.48.12.76.07l.39,1.17c-.26.05-.51.07-.77.04-.25-.02-.49-.08-.71-.18-.22-.1-.44-.23-.63-.4-.2-.17-.38-.37-.54-.6-.23-.33-.38-.67-.46-1.03-.07-.35-.07-.7,0-1.03.07-.33.22-.65.43-.96.22-.31.5-.58.85-.82.35-.24.71-.41,1.07-.5.36-.09.71-.11,1.05-.06.34.05.66.18.96.37.3.19.56.45.79.78.24.35.4.71.46,1.06.06.36.04.7-.07,1.03-.1.33-.29.65-.56.95-.27.3-.61.58-1.03.83l-.69-1,.65-.45c.34-.24.54-.53.6-.84.06-.32-.02-.64-.24-.97-.12-.18-.27-.32-.44-.42-.16-.1-.34-.15-.54-.17-.19-.01-.4.02-.61.09-.22.07-.44.19-.67.34s-.41.32-.56.5c-.14.18-.24.36-.29.54-.05.18-.07.37-.03.56.04.19.12.38.24.56Zm3.19.55l-.61.71-2.37-3.45.77-.49,2.22,3.22Z"/>
  <rect class="cls-12" x="187.1" y="53.73" width="24" height="81" rx="4" ry="4" transform="translate(93.94 287.79) rotate(-86.81)"/>
  <path class="cls-20" d="m169.41,96.59l-2.27-.13.4-7.19,2.27.13c.57.03,1.07.14,1.5.32.43.18.79.43,1.07.76.29.32.49.71.63,1.17.13.45.18.97.15,1.55-.03.58-.14,1.08-.32,1.52-.18.44-.43.8-.75,1.09-.32.29-.7.5-1.15.63-.45.13-.96.18-1.53.15Zm-.72-6.12l-.27,4.93.93.05c.4.02.76,0,1.06-.09.31-.09.57-.23.78-.42.21-.2.38-.44.49-.75.12-.3.19-.66.21-1.07.05-.83-.12-1.45-.5-1.89-.38-.43-.97-.67-1.77-.71l-.93-.05Zm7.9,5.56c.31.02.56-.03.77-.15.21-.12.39-.3.52-.55l1.17.41c-.12.24-.26.45-.44.63-.17.18-.36.33-.58.45-.21.12-.45.2-.71.26-.25.06-.52.08-.8.06-.4-.02-.77-.11-1.09-.27-.32-.16-.59-.37-.82-.63-.22-.26-.38-.57-.49-.93-.11-.36-.15-.75-.13-1.17.02-.43.11-.81.26-1.15.15-.34.35-.63.6-.87.25-.24.54-.41.88-.53.34-.12.7-.17,1.1-.14.43.02.8.12,1.12.29.32.17.58.4.78.68.2.29.34.63.41,1.02.07.4.08.84.02,1.32l-1.21-.07.04-.79c.01-.42-.09-.75-.3-.99-.21-.25-.52-.38-.92-.4-.22-.01-.42.02-.6.09-.18.07-.33.18-.46.32-.13.14-.23.32-.31.54-.08.22-.12.46-.14.74-.02.28,0,.52.05.74.05.22.14.41.25.56.11.16.25.28.43.37.17.09.37.14.59.15Zm2.39-2.19l.19.92-4.18-.23.08-.91,3.91.22Zm2.43,3.42l-1.66-5.5,1.2.07,1.14,3.99,1.58-3.84,1.2.07-2.26,5.28-1.21-.07Zm6.31-.61c.31.02.56-.03.77-.15.21-.12.39-.3.52-.55l1.17.41c-.12.24-.26.45-.44.63-.17.18-.36.33-.58.45-.21.12-.45.2-.7.26-.25.06-.52.08-.81.06-.4-.02-.77-.11-1.09-.27-.32-.16-.59-.37-.82-.63-.22-.26-.38-.57-.49-.93-.11-.36-.15-.75-.13-1.17.02-.43.11-.81.26-1.15.15-.34.35-.63.6-.87.25-.24.54-.41.88-.53.34-.12.7-.17,1.1-.14.43.02.8.12,1.12.29.32.17.58.4.78.68.2.29.34.63.41,1.02.07.4.08.84.02,1.32l-1.21-.07.04-.79c.01-.42-.09-.75-.3-.99-.21-.25-.52-.38-.92-.4-.22-.01-.42.02-.6.09-.18.07-.33.18-.46.32-.13.14-.23.32-.3.54-.08.22-.12.46-.14.74-.02.28,0,.52.05.74.06.22.14.41.25.56.11.16.25.28.43.37.17.09.37.14.59.15Zm2.39-2.19l.19.92-4.18-.23.08-.91,3.91.22Zm1.27,3.35l.41-7.34,1.2.07-.41,7.34-1.2-.07Zm5.07.43c-.4-.02-.76-.11-1.09-.27-.32-.16-.59-.37-.82-.63-.22-.27-.38-.58-.49-.93-.11-.36-.15-.74-.12-1.16.02-.42.11-.81.26-1.15s.35-.63.59-.86c.25-.24.54-.42.88-.54.34-.12.71-.17,1.1-.15.41.02.77.11,1.09.27.32.15.59.37.82.63.22.26.39.57.49.93.11.36.15.74.13,1.16-.02.42-.11.8-.26,1.14-.15.34-.34.63-.59.87-.25.24-.54.42-.88.54-.34.12-.71.17-1.12.14Zm.06-1.13c.23.01.43-.01.61-.08.18-.07.34-.17.46-.31.13-.14.23-.32.31-.53.07-.21.12-.45.13-.71.01-.27,0-.51-.05-.73-.05-.22-.13-.4-.24-.55-.11-.16-.25-.28-.42-.36-.17-.09-.37-.14-.6-.15-.23-.01-.43.01-.61.08-.18.07-.33.17-.46.32-.13.14-.23.31-.3.52-.07.21-.11.45-.13.72-.01.27,0,.51.05.73.05.22.13.4.24.56.11.15.25.27.42.36.17.09.37.14.59.15Zm3.6,3.59l.43-7.79,1.2.07-.43,7.79-1.2-.07Zm2.99-2.09c-.39-.02-.71-.11-.97-.27-.25-.16-.46-.37-.61-.63-.15-.26-.25-.57-.31-.92-.05-.35-.06-.73-.04-1.14.02-.41.08-.79.17-1.13.09-.35.23-.64.4-.88.18-.24.41-.43.68-.55.27-.13.6-.18.99-.16.36.02.68.11.97.26.29.16.54.37.74.63.2.26.35.57.45.93.1.36.14.74.12,1.16-.02.42-.11.8-.25,1.14-.14.34-.33.63-.56.87-.23.24-.5.42-.81.54-.3.12-.63.18-.99.16Zm-.19-1.14c.24.01.44-.02.63-.09.18-.07.34-.18.46-.32.13-.15.23-.32.29-.53.07-.21.12-.44.13-.69.01-.26,0-.5-.05-.71-.05-.22-.13-.4-.24-.55-.11-.16-.25-.28-.42-.37-.17-.09-.38-.15-.61-.16-.24-.01-.46.02-.64.09-.18.07-.33.18-.46.32-.12.14-.22.32-.29.53-.07.21-.11.44-.12.69-.01.26,0,.5.05.72.05.21.13.4.24.55.11.16.25.28.42.37.17.09.38.14.61.15Zm7.14-1.85c.01-.18,0-.35-.04-.5-.03-.15-.09-.28-.16-.39-.07-.11-.18-.19-.3-.26-.12-.06-.27-.1-.44-.11-.17,0-.33.01-.46.06-.13.05-.24.12-.33.22-.09.1-.16.22-.21.37-.05.14-.08.31-.09.49l-.25-.44c.02-.13.04-.27.08-.41.04-.14.08-.29.13-.42.06-.14.13-.27.21-.39.09-.12.19-.23.31-.32.12-.09.26-.16.42-.21.16-.05.34-.07.55-.05.31.02.59.08.82.18.23.1.43.24.58.42.15.18.26.41.32.67.07.26.09.56.07.91l-.19,3.47-1.2-.07.18-3.21Zm-3.42,3.03l.3-5.39,1.2.07-.3,5.39-1.2-.07Zm6.66-2.85c.01-.18,0-.35-.03-.5-.03-.15-.09-.28-.16-.39-.08-.11-.18-.19-.31-.26-.12-.06-.27-.1-.44-.11-.17,0-.33.01-.46.06-.13.05-.24.12-.33.22-.09.1-.16.22-.21.37-.05.14-.08.31-.09.49l-.54-.46c.03-.23.09-.45.18-.68.1-.22.22-.42.38-.59s.35-.31.58-.4c.23-.1.49-.14.78-.12.32.02.6.08.85.18.24.1.45.24.6.42.16.18.28.41.35.67.07.26.1.56.08.91l-.19,3.47-1.2-.07.18-3.22Zm4.77,2.53c.31.02.56-.03.77-.15.21-.12.39-.3.52-.55l1.17.41c-.12.24-.26.45-.43.63-.17.18-.36.33-.58.45-.21.12-.45.2-.71.26-.25.06-.52.08-.8.06-.4-.02-.77-.11-1.09-.27-.32-.16-.59-.37-.82-.63-.22-.26-.38-.57-.49-.93-.11-.36-.15-.75-.13-1.17.02-.43.11-.81.26-1.15.15-.34.35-.63.6-.87.25-.24.54-.41.88-.53.34-.12.7-.17,1.1-.14.43.02.8.12,1.12.29.32.17.58.4.78.68.2.29.34.63.41,1.02.07.4.08.84.02,1.32l-1.21-.07.04-.79c.01-.42-.09-.75-.3-.99-.21-.25-.52-.38-.92-.4-.22-.01-.42.02-.6.09-.18.07-.33.18-.46.32-.13.14-.23.32-.31.54-.07.22-.12.46-.14.74-.01.28,0,.52.05.74.05.22.14.41.25.56.11.16.25.28.43.37s.37.14.59.15Zm2.39-2.19l.19.92-4.18-.23.08-.91,3.91.22Zm4.91.58c.01-.23,0-.44-.05-.62-.04-.18-.12-.34-.22-.46-.1-.13-.23-.23-.38-.3-.15-.08-.33-.12-.53-.13-.2-.01-.38.01-.54.06-.16.05-.3.14-.41.26-.11.11-.2.26-.27.44-.07.18-.11.38-.12.61l-.22-.87c.04-.21.1-.42.18-.62.09-.2.21-.38.36-.54.15-.16.34-.28.57-.36.23-.09.5-.12.83-.1.32.02.61.08.87.19.26.1.48.26.65.46.18.2.31.45.39.75.09.3.12.64.1,1.04l-.18,3.22-1.2-.07.16-2.97Zm-3.89,2.76l.3-5.39,1.2.07-.3,5.39-1.2-.07Zm5.87-3.96l.06-1.12,3.76.21-.06,1.12-3.76-.21Zm3.58,3.41l-.06,1.07-1.03-.06h-.1c-.26-.02-.49-.07-.69-.14-.2-.08-.36-.19-.5-.33-.13-.14-.23-.3-.3-.5-.06-.19-.09-.41-.07-.65v-.1s.31-5.57.31-5.57l1.2.07-.3,5.42c0,.12,0,.23.02.32.02.09.06.16.12.22.05.06.12.11.21.14.09.03.19.05.31.06l.88.05Z"/>
  <rect class="cls-15" x="254.6" y="77.64" width="24" height="55" rx="4" ry="4" transform="translate(11.93 236.57) rotate(-48.82)"/>
  <path class="cls-6" d="m250.99,96.8l4-4.57-1.61-1.41.74-.85,4.13,3.61-.74.85-1.61-1.41-4,4.57-.91-.8Zm7.88,2.95c.15-.18.27-.35.34-.52.08-.17.12-.34.12-.5,0-.16-.04-.32-.11-.47-.07-.15-.19-.3-.34-.43-.15-.13-.31-.23-.47-.28-.16-.06-.32-.07-.49-.05-.16.02-.32.08-.48.18-.16.1-.32.23-.47.41l.36-.82c.16-.14.33-.27.52-.37.19-.11.4-.17.61-.2.21-.03.44,0,.67.06.23.07.47.21.72.43.24.21.43.44.57.68.14.24.22.5.23.77.02.27-.03.55-.15.83-.11.29-.3.58-.57.88l-2.12,2.43-.91-.79,1.95-2.24Zm-4.77-.22l4.74-5.42.91.79-4.74,5.42-.91-.79Zm9.86,2.81c-.05-.06-.11-.13-.18-.19-.07-.07-.14-.14-.23-.21-.15-.13-.31-.23-.47-.28-.16-.06-.32-.07-.49-.05-.16.02-.32.08-.48.18-.16.1-.32.23-.47.41l.36-.82c.16-.14.33-.27.52-.37.19-.1.4-.17.61-.2.22-.03.44,0,.67.07.23.07.47.21.72.43.03.03.06.06.09.09.03.03.06.06.09.09l-.76.87Zm-5.18,1.29l3.55-4.06.91.79-3.55,4.07-.91-.79Zm5.37,3.42c.23.2.46.32.7.36.24.04.49,0,.75-.11l.67,1.04c-.24.12-.48.19-.73.23-.25.04-.49.04-.74,0-.24-.04-.48-.12-.71-.23-.23-.11-.46-.26-.67-.45-.3-.27-.54-.56-.7-.88-.16-.32-.24-.66-.26-1-.01-.34.05-.69.18-1.04.14-.35.34-.69.62-1,.28-.32.58-.57.91-.75.33-.18.67-.28,1.01-.32.34-.03.68,0,1.02.12.34.11.66.3.96.56.32.28.56.59.71.92.15.33.21.67.19,1.02-.02.35-.12.7-.3,1.06-.19.36-.45.71-.8,1.06l-.91-.8.52-.6c.27-.32.39-.64.37-.96-.02-.32-.18-.62-.48-.88-.17-.15-.34-.25-.53-.3-.18-.05-.37-.06-.56-.03-.19.03-.38.11-.57.24-.19.12-.38.29-.56.5-.18.21-.32.42-.42.62-.09.21-.14.41-.15.6,0,.19.03.38.11.55.08.18.21.34.37.49Zm3.23-.25l-.42.84-3.15-2.76.62-.67,2.95,2.58Zm1.3,4.21c.23.2.46.32.7.36.24.04.49,0,.75-.11l.67,1.04c-.24.11-.48.19-.73.23-.24.04-.49.04-.74,0-.24-.04-.48-.11-.71-.23-.23-.11-.46-.26-.67-.45-.3-.26-.54-.56-.7-.88-.16-.32-.24-.66-.26-1-.01-.34.05-.69.18-1.04.13-.35.34-.68.62-1,.28-.32.59-.57.91-.75.33-.18.67-.28,1.01-.32.34-.03.68,0,1.02.12.34.12.66.3.95.56.32.28.56.59.71.92.15.33.21.67.19,1.02-.02.35-.12.7-.3,1.06-.19.36-.45.71-.8,1.06l-.91-.8.52-.6c.27-.32.39-.64.37-.96-.02-.32-.18-.62-.48-.88-.17-.14-.34-.25-.53-.3-.18-.05-.37-.06-.56-.03-.19.03-.38.11-.57.24-.19.12-.38.29-.56.5-.18.21-.32.42-.42.62-.09.21-.14.41-.15.6,0,.19.03.38.11.55.08.18.2.34.37.49Zm3.23-.25l-.42.84-3.15-2.76.62-.66,2.95,2.58Zm-1.13,3.36l.81-.93.93.81-.81.93-.93-.81Zm6.43-2.64l.73-.83.9.79-.73.83-.9-.79Zm-3.7,6.06l-.07.08c-.16.18-.32.32-.49.42-.17.1-.35.16-.53.18s-.37-.01-.55-.09c-.19-.07-.38-.19-.58-.37l-.08-.07-.48-.42.74-.84.27.24c.09.08.18.14.26.17.08.04.17.06.25.05.08,0,.16-.03.24-.08.08-.04.16-.11.24-.2l3.94-4.5.9.79-4.07,4.65Zm3.06,1.85c-.25-.22-.46-.45-.61-.69-.16-.24-.26-.47-.32-.72-.06-.25-.06-.49-.02-.74.05-.24.14-.49.28-.73l1.05.67c-.14.26-.18.51-.12.75.06.24.21.47.45.68.22.19.43.3.64.33.2.03.38-.03.51-.19.04-.04.07-.09.09-.13.02-.05.03-.1.03-.15,0-.06,0-.11-.03-.18-.02-.06-.05-.14-.1-.22-.05-.08-.11-.19-.2-.32-.08-.13-.19-.29-.31-.47-.18-.27-.33-.51-.44-.73-.11-.22-.18-.43-.22-.62-.03-.19-.03-.38.02-.55.05-.17.15-.34.3-.5.17-.19.35-.32.56-.41.21-.08.43-.12.67-.1.24.01.48.08.73.19.25.11.5.27.74.49.24.21.43.42.57.65.15.23.25.46.31.69.06.23.07.47.04.69-.03.23-.12.45-.25.66l-1.07-.64c.07-.1.11-.21.13-.32.02-.11.02-.22,0-.33-.02-.11-.07-.22-.15-.33-.07-.11-.16-.22-.27-.31-.1-.09-.2-.15-.3-.2-.1-.05-.2-.09-.29-.1-.09-.02-.18-.02-.25,0-.08.02-.14.06-.2.13-.05.06-.08.11-.09.18,0,.06,0,.13.01.2.02.07.05.14.09.23.04.08.09.17.15.27.06.11.14.24.23.38.1.15.2.31.32.48.16.25.29.47.37.67.08.2.13.39.14.57.01.17-.01.33-.07.49-.06.16-.15.31-.28.46-.18.2-.38.35-.6.45-.22.09-.45.14-.69.12-.24-.01-.49-.08-.75-.2-.26-.12-.52-.29-.78-.52Z"/>
</svg>